<?xml version="1.0" encoding="utf-8"?>
<!-- Generator: Adobe Illustrator 24.3.0, SVG Export Plug-In . SVG Version: 6.00 Build 0)  -->
<svg version="1.1" xmlns="http://www.w3.org/2000/svg" xmlns:xlink="http://www.w3.org/1999/xlink" x="0px" y="0px"
	 viewBox="0 0 1080 1080" style="enable-background:new 0 0 1080 1080;" xml:space="preserve">
<style type="text/css">
	.st0{display:none;}
	.st1{display:inline;}
	.st2{fill:none;}
	.st3{fill:#47C2F2;}
	.st4{font-family:'Righteous-Regular';}
	.st5{font-size:74px;}
	.st6{font-family:'Montserrat-Bold';}
	.st7{font-size:72px;}
	.st8{fill:#AAE5E8;}
	.st9{fill:#00ECB0;}
	.st10{fill:#F7FBFC;}
	.st11{fill:#777B7C;}
	.st12{fill:#EFF4F3;}
	.st13{fill:#E4EEF2;}
	.st14{fill:#71BBCC;}
</style>
<g id="Capa_2" class="st0">
	<g class="st1">
		<path d="M889.69,267.19c1.46,4.82,6.8,6.1,12.33,4.89c4.05-0.89,7.2-2.14,10.17-3.85l3.31,7.68c-3.55,2.41-8.13,4.22-13.27,5.35
			c-12.93,2.82-21.96-3.03-24.56-14.95c-2.11-9.66,1.56-21.63,14.79-24.52c12.3-2.69,19.06,5.87,21.12,15.29
			c0.44,2.03,0.6,3.87,0.63,4.76L889.69,267.19z M901.86,256.05c-0.63-2.88-2.93-7.43-8.38-6.24c-4.98,1.09-6.02,6.04-5.63,9.3
			L901.86,256.05z"/>
	</g>
</g>
<g id="Capa_1">
	<g>
		<rect x="140.59" y="195.17" class="st2" width="313.24" height="82.61"/>
		<text transform="matrix(1 0 0 1 140.5884 250.0736)"><tspan x="0" y="0" class="st3 st4 st5">hous</tspan><tspan x="164.8" y="0" class="st3 st6 st5">e</tspan><tspan x="211.5" y="0" class="st3 st4 st5">ify</tspan><tspan x="299.91" y="0" class="st3 st4 st7"> </tspan></text>
		<rect x="394.63" y="187.69" class="st8" width="1" height="2.99"/>
		<path id="XMLID_10_" class="st3" d="M216.95,94.97c-11.68-11.28-30.25-11.13-41.73,0.36l-84.65,84.65v80.73
			c0,6.47,5.24,11.71,11.71,11.71h13.98c6.47,0,11.71-5.24,11.71-11.71v-60.06l97.46-97.46L216.95,94.97z"/>
		<path id="XMLID_20_" class="st9" d="M151.66,118.88c19.65-10.99,47.94,8.42,47.94,8.42l34.93,30.63
			c14.13,12.4,35.46,11.7,48.75-1.59l0,0l-66.35-62.05c-11.72-10.96-30.02-10.65-41.37,0.69L151.66,118.88z"/>
		<path id="XMLID_9_" class="st3" d="M267.88,98.95c-7.53,0-11.59,8.8-6.74,14.55c3.07,3.64,7.96,6.87,15.72,8.11
			c14.32,2.28,23.06,19.7,27.37,31.38c0.66,1.79,3.3,1.31,3.3-0.6v-44.62c0-4.88-3.95-8.83-8.82-8.83H267.88z"/>
	</g>
	<g>
		<rect x="127.42" y="467.48" class="st2" width="313.24" height="82.61"/>
		<text transform="matrix(1 0 0 1 127.417 522.391)"><tspan x="0" y="0" class="st10 st4 st5">hous</tspan><tspan x="164.8" y="0" class="st10 st6 st5">e</tspan><tspan x="211.5" y="0" class="st10 st4 st5">ify</tspan><tspan x="299.91" y="0" class="st10 st4 st7"> </tspan></text>
		<rect x="381.45" y="460" class="st8" width="1" height="2.99"/>
		<path id="XMLID_8_" class="st10" d="M203.77,367.29c-11.68-11.28-30.25-11.13-41.73,0.36L77.4,452.29v80.73
			c0,6.47,5.24,11.71,11.71,11.71h13.98c6.47,0,11.71-5.24,11.71-11.71v-60.06l97.46-97.46L203.77,367.29z"/>
		<path id="XMLID_6_" class="st11" d="M138.49,391.2c19.65-10.99,47.94,8.42,47.94,8.42l34.93,30.63
			c14.13,12.4,35.46,11.7,48.75-1.59l0,0l-66.35-62.05c-11.72-10.96-30.02-10.65-41.37,0.69L138.49,391.2z"/>
		<path id="XMLID_1_" class="st12" d="M254.71,371.27c-7.53,0-11.59,8.8-6.74,14.55c3.07,3.64,7.96,6.87,15.72,8.11
			c14.32,2.28,23.06,19.7,27.37,31.38c0.66,1.79,3.3,1.31,3.3-0.6v-44.62c0-4.88-3.95-8.83-8.82-8.83H254.71z"/>
	</g>
	<g>
		<rect x="122.06" y="739.8" class="st2" width="313.24" height="82.61"/>
		<text transform="matrix(1 0 0 1 122.0632 794.7084)"><tspan x="0" y="0" class="st3 st4 st5">hous</tspan><tspan x="164.8" y="0" class="st3 st6 st5">e</tspan><tspan x="211.5" y="0" class="st3 st4 st5">ify</tspan><tspan x="299.91" y="0" class="st3 st4 st7"> </tspan></text>
		<rect x="376.1" y="732.32" class="st8" width="1" height="2.99"/>
		<path id="XMLID_18_" class="st3" d="M198.42,639.6c-11.68-11.28-30.25-11.13-41.73,0.36l-84.65,84.65v80.73
			c0,6.47,5.24,11.71,11.71,11.71h13.98c6.47,0,11.71-5.24,11.71-11.71v-60.06l97.46-97.46L198.42,639.6z"/>
		<path id="XMLID_16_" class="st9" d="M133.14,663.52c19.65-10.99,47.94,8.42,47.94,8.42l34.93,30.63
			c14.13,12.4,35.46,11.7,48.75-1.59l0,0l-66.35-62.05c-11.72-10.96-30.02-10.65-41.37,0.69L133.14,663.52z"/>
		<path id="XMLID_5_" class="st3" d="M249.35,643.59c-7.53,0-11.59,8.8-6.74,14.55c3.07,3.64,7.96,6.87,15.72,8.11
			c14.32,2.28,23.06,19.7,27.37,31.38c0.66,1.79,3.3,1.31,3.3-0.6v-44.62c0-4.88-3.95-8.83-8.82-8.83H249.35z"/>
	</g>
	<g>
		<g>
			<rect x="627.91" y="290.92" class="st2" width="313.24" height="82.61"/>
			<text transform="matrix(1 0 0 1 627.9143 345.8287)"><tspan x="0" y="0" class="st13 st4 st5">hous</tspan><tspan x="164.8" y="0" class="st13 st6 st5">e</tspan><tspan x="211.5" y="0" class="st13 st4 st5">ify</tspan><tspan x="299.91" y="0" class="st13 st4 st7"> </tspan></text>
			<rect x="881.95" y="283.44" class="st13" width="1" height="2.99"/>
			<g id="XMLID_58_">
				<path class="st13" d="M704.27,190.72c-11.68-11.28-30.25-11.13-41.73,0.36l-84.65,84.65v80.73c0,6.47,5.24,11.71,11.71,11.71
					h13.98c6.47,0,11.71-5.24,11.71-11.71V296.4l97.46-97.46L704.27,190.72z"/>
			</g>
			<g id="XMLID_57_">
				<path class="st13" d="M638.99,214.64c19.65-10.99,47.94,8.42,47.94,8.42l34.93,30.63c14.13,12.4,35.46,11.7,48.75-1.59l0,0
					l-66.35-62.05c-11.72-10.96-30.02-10.65-41.37,0.69L638.99,214.64z"/>
			</g>
			<g id="XMLID_56_">
				<path class="st13" d="M755.2,194.71c-7.53,0-11.59,8.8-6.74,14.55c3.07,3.64,7.96,6.87,15.72,8.11
					c14.32,2.28,23.06,19.7,27.37,31.38c0.66,1.79,3.3,1.31,3.3-0.6v-44.62c0-4.88-3.95-8.83-8.82-8.83H755.2z"/>
			</g>
		</g>
	</g>
	<g>
		<rect x="650.83" y="634.87" class="st2" width="313.24" height="82.61"/>
		<text transform="matrix(1 0 0 1 650.8282 689.774)"><tspan x="0" y="0" class="st10 st4 st5">hous</tspan><tspan x="164.8" y="0" class="st10 st6 st5">e</tspan><tspan x="211.5" y="0" class="st10 st4 st5">ify</tspan><tspan x="299.91" y="0" class="st10 st4 st7"> </tspan></text>
		<rect x="904.87" y="627.39" class="st8" width="1" height="2.99"/>
		<path id="XMLID_33_" class="st14" d="M727.19,534.67c-11.68-11.28-30.25-11.13-41.73,0.36l-84.65,84.65v80.73
			c0,6.47,5.24,11.71,11.71,11.71h13.98c6.47,0,11.71-5.24,11.71-11.71v-60.06l97.46-97.46L727.19,534.67z"/>
		<path id="XMLID_30_" class="st11" d="M661.9,558.58c19.65-10.99,47.94,8.42,47.94,8.42l34.93,30.63
			c14.13,12.4,35.46,11.7,48.75-1.59l0,0l-66.35-62.05c-11.72-10.96-30.02-10.65-41.37,0.69L661.9,558.58z"/>
		<path id="XMLID_7_" class="st12" d="M778.12,538.65c-7.53,0-11.59,8.8-6.74,14.55c3.07,3.64,7.96,6.87,15.72,8.11
			c14.32,2.28,23.06,19.7,27.37,31.38c0.66,1.79,3.3,1.31,3.3-0.6v-44.62c0-4.88-3.95-8.83-8.82-8.83H778.12z"/>
	</g>
</g>
</svg>
