<?xml version="1.0" encoding="utf-8"?>
<!-- Generator: Adobe Illustrator 16.0.0, SVG Export Plug-In . SVG Version: 6.00 Build 0)  -->
<!DOCTYPE svg PUBLIC "-//W3C//DTD SVG 1.1//EN" "http://www.w3.org/Graphics/SVG/1.1/DTD/svg11.dtd">
<svg version="1.1" id="Capa_1" xmlns="http://www.w3.org/2000/svg" xmlns:xlink="http://www.w3.org/1999/xlink" x="0px" y="0px"
	 width="1884.417px" height="1351.333px" viewBox="0 0 1884.417 1351.333" enable-background="new 0 0 1884.417 1351.333"
	 xml:space="preserve">
<g>
	<rect x="419.102" y="524.027" fill="#53ADBC" width="0.937" height="2.81"/>
	<g>
		<g>
			<g id="XMLID_74_">
				<path fill="#7AEAEA" d="M252.007,436.833c-10.983-10.611-28.444-10.465-39.241,0.336l-79.604,79.605v75.924
					c0,6.086,4.932,11.016,11.016,11.016h13.15c6.084,0,11.016-4.93,11.016-11.016v-56.482l91.652-91.657L252.007,436.833z"/>
			</g>
			<g id="XMLID_73_">
				<path fill="#7AEFE3" d="M190.61,459.323c18.479-10.333,45.084,7.92,45.084,7.92l32.85,28.809
					c13.289,11.657,33.343,11,45.844-1.5l0,0l-62.4-58.354c-11.022-10.309-28.231-10.02-38.905,0.648L190.61,459.323z"/>
			</g>
		</g>
	</g>
	<path id="XMLID_4_" fill="#00DDC8" d="M299.904,440.579c-7.08,0-10.902,8.272-6.335,13.682c2.889,3.425,7.484,6.46,14.787,7.626
		c13.471,2.146,21.686,18.525,25.742,29.515c0.62,1.684,3.1,1.229,3.1-0.562v-41.961c0-4.585-3.717-8.3-8.299-8.3H299.904z"/>
	<text transform="matrix(0.9788 0 0 1 190.6113 590.5273)" fill="#00E1C4" font-family="'Righteous-Regular'" font-size="76.5705">houseify</text>
</g>
<g>
	<g>
		<g>
			<g id="XMLID_34_">
				<path fill="#FCFCFC" d="M1183.792,103.013c-18.848-18.207-48.809-17.957-67.337,0.576L979.86,240.185v130.282
					c0,10.439,8.46,18.902,18.903,18.902h22.563c10.44,0,18.901-8.462,18.901-18.902v-96.921l157.27-157.275L1183.792,103.013z"/>
			</g>
			<g id="XMLID_33_">
				<path fill="#C9C7C7" d="M1078.44,141.606c31.708-17.731,77.361,13.589,77.361,13.589l56.367,49.433
					c22.802,20.005,57.214,18.877,78.665-2.572l0,0l-107.075-100.131c-18.913-17.688-48.444-17.194-66.757,1.114L1078.44,141.606z"
					/>
			</g>
		</g>
	</g>
	<path id="XMLID_1_" fill="#FCFCFC" d="M1265.97,109.441c-12.141,0-18.706,14.195-10.872,23.477
		c4.965,5.877,12.851,11.085,25.383,13.084c23.114,3.684,37.209,31.789,44.162,50.645c1.071,2.892,5.321,2.109,5.321-0.964v-72
		c0-7.868-6.377-14.243-14.233-14.243H1265.97z"/>
	<g>
		
			<text transform="matrix(0.9788 0 0 1 1078.4395 366.7422)" fill="#FCFCFC" font-family="'Righteous-Regular'" font-size="131.3889">houseify</text>
	</g>
</g>
<g>
	<g>
		<g>
			<g id="XMLID_68_">
				<path fill="#2791A5" d="M276.532,1054.012c-10.794-10.428-27.952-10.284-38.563,0.331l-78.23,78.229v74.616
					c0,5.978,4.845,10.824,10.825,10.824h12.923c5.979,0,10.825-4.847,10.825-10.824v-55.51l90.07-90.074L276.532,1054.012z"/>
			</g>
			<g id="XMLID_67_">
				<path fill="#97DDDD" d="M216.197,1076.114c18.159-10.154,44.306,7.783,44.306,7.783l32.281,28.311
					c13.06,11.456,32.768,10.81,45.051-1.473l0,0l-61.322-57.347c-10.833-10.132-27.743-9.848-38.234,0.638L216.197,1076.114z"/>
			</g>
		</g>
	</g>
	<path id="XMLID_2_" fill="#7BE5F0" d="M323.601,1057.694c-6.957,0-10.713,8.13-6.227,13.445c2.84,3.365,7.356,6.348,14.534,7.49
		c13.237,2.111,21.31,18.207,25.295,29.008c0.609,1.656,3.047,1.208,3.047-0.554v-41.237c0-4.505-3.652-8.152-8.154-8.152H323.601z"
		/>
	<g>
		
			<text transform="matrix(0.9788 0 0 1 216.1982 1205.0518)" fill="#7BE5F0" font-family="'Righteous-Regular'" font-size="75.2482">houseify</text>
	</g>
</g>
<g>
	<g>
		<rect x="434.503" y="227.258" fill="#AAE5E8" width="0.996" height="2.987"/>
		<g id="XMLID_86_">
			<path fill="#7BE4F2" d="M256.823,134.541c-11.679-11.282-30.245-11.127-41.726,0.357l-84.647,84.648v80.733
				c0,6.47,5.244,11.714,11.713,11.714h13.983c6.469,0,11.713-5.244,11.713-11.714v-60.062l97.458-97.461L256.823,134.541z"/>
		</g>
		<g id="XMLID_85_">
			<path fill="#7AECE7" d="M191.538,158.456c19.649-10.987,47.94,8.421,47.94,8.421l34.931,30.633
				c14.13,12.396,35.456,11.699,48.748-1.594l0,0l-66.353-62.051c-11.72-10.961-30.02-10.654-41.37,0.69L191.538,158.456z"/>
		</g>
		<g id="XMLID_84_">
			<path fill="#7BE4F2" d="M307.754,138.523c-7.528,0-11.593,8.797-6.737,14.549c3.073,3.643,7.959,6.87,15.724,8.109
				c14.324,2.283,23.059,19.699,27.373,31.385c0.659,1.791,3.295,1.306,3.295-0.598V147.35c0-4.875-3.952-8.827-8.824-8.827H307.754
				z"/>
		</g>
		<text transform="matrix(0.9788 0 0 1 191.5381 297.9683)" fill="#7BE4F2" font-family="'Righteous-Regular'" font-size="81.4206">houseify</text>
	</g>
</g>
<g>
	<g>
		<g>
			<g id="XMLID_72_">
				<path fill="#21B7B7" d="M261.284,784.655c-11.079-10.702-28.69-10.555-39.581,0.34l-80.296,80.296v76.585
					c0,6.135,4.973,11.11,11.111,11.11h13.265c6.136,0,11.11-4.976,11.11-11.11v-56.975l92.449-92.454L261.284,784.655z"/>
			</g>
			<g id="XMLID_71_">
				<path fill="#AAE5E8" d="M199.355,807.343c18.639-10.423,45.476,7.987,45.476,7.987l33.134,29.059
					c13.404,11.759,33.633,11.096,46.241-1.512l0,0l-62.941-58.86c-11.118-10.398-28.476-10.108-39.243,0.654L199.355,807.343z"/>
			</g>
		</g>
	</g>
	<path id="XMLID_15_" fill="#7BE5F0" d="M309.596,788.435c-7.141,0-10.997,8.345-6.391,13.802c2.915,3.454,7.551,6.515,14.917,7.688
		c13.586,2.167,21.873,18.688,25.963,29.774c0.626,1.698,3.127,1.24,3.127-0.568v-42.326c0-4.624-3.748-8.369-8.369-8.369H309.596z"
		/>
	<g>
		<text transform="matrix(0.9788 0 0 1 199.3564 939.6846)" fill="#7BE5F0" font-family="'Righteous-Regular'" font-size="77.2352">houseify</text>
	</g>
</g>
<g>
	<rect x="1172.126" y="913.902" fill="none" width="278.896" height="98.883"/>
	<text transform="matrix(1 0 0 1 1172.125 963.8984)" fill="#21B7B7" font-family="'MerriweatherSans-Bold'" font-size="61.4587">houseify</text>
	<g>
		<g>
			<g id="XMLID_62_">
				<path fill="#21B7B7" d="M1231.965,824.004c-10.704-10.342-27.723-10.199-38.245,0.326l-77.586,77.588v73.998
					c0,5.93,4.807,10.738,10.736,10.738h12.816c5.93,0,10.736-4.809,10.736-10.738v-55.051l89.328-89.332L1231.965,824.004z"/>
			</g>
			<g id="XMLID_61_">
				<path fill="#7BE5F0" d="M1172.126,845.924c18.01-10.07,43.94,7.719,43.94,7.719l32.017,28.078
					c12.952,11.363,32.498,10.723,44.682-1.461l0,0l-60.817-56.875c-10.743-10.047-27.517-9.766-37.919,0.633L1172.126,845.924z"/>
			</g>
		</g>
	</g>
	<path id="XMLID_11_" fill="#7BE5F0" d="M1282.284,839.416c-6.9,0-10.626,8.064-6.175,13.336c2.815,3.338,7.295,6.297,14.413,7.434
		c13.129,2.092,21.135,18.055,25.088,28.766c0.604,1.641,3.021,1.197,3.021-0.547v-40.896c0-4.469-3.623-8.092-8.089-8.092H1282.284
		z"/>
</g>
<g>
	<g>
		<g>
			<g id="XMLID_70_">
				<path fill="#2CC4DD" d="M1226.905,1068.24c-10.366-10.014-26.845-9.877-37.035,0.318l-75.134,75.131v71.662
					c0,5.74,4.652,10.396,10.396,10.396h12.411c5.742,0,10.396-4.656,10.396-10.396v-53.312l86.504-86.508L1226.905,1068.24z"/>
			</g>
			<g id="XMLID_69_">
				<path fill="#7BE5F0" d="M1168.958,1089.469c17.44-9.754,42.552,7.475,42.552,7.475l31.004,27.189
					c12.542,11.002,31.471,10.383,43.268-1.414l0,0l-58.895-55.076c-10.403-9.73-26.644-9.457-36.72,0.613L1168.958,1089.469z"/>
			</g>
		</g>
	</g>
	<path id="XMLID_6_" fill="#2CC4DD" d="M1272.11,1071.777c-6.682,0-10.289,7.809-5.979,12.912c2.728,3.232,7.064,6.098,13.958,7.195
		c12.713,2.027,20.466,17.486,24.293,27.859c0.586,1.59,2.927,1.16,2.927-0.531v-39.605c0-4.326-3.507-7.83-7.83-7.83H1272.11z"/>
	<g>
		<text transform="matrix(0.9788 0 0 1 1168.96 1213.3008)" fill="#7BE5F0" font-family="'Righteous-Regular'" font-size="72.2689">houseify</text>
	</g>
</g>
<g>
	<g>
		<g>
			<g id="XMLID_79_">
				<path fill="#C9C7C7" d="M1198.445,511.572c-11.991-11.583-31.053-11.424-42.841,0.366l-86.903,86.905v82.887
					c0,6.643,5.382,12.025,12.026,12.025h14.355c6.643,0,12.025-5.383,12.025-12.025v-61.663l100.057-100.06L1198.445,511.572z"/>
			</g>
			<g id="XMLID_75_">
				<path fill="#FCFCFC" d="M1131.419,536.125c20.174-11.281,49.219,8.646,49.219,8.646l35.861,31.449
					c14.507,12.728,36.4,12.01,50.048-1.637l0,0l-68.122-63.705c-12.033-11.253-30.821-10.939-42.473,0.709L1131.419,536.125z"/>
			</g>
		</g>
	</g>
	<path id="XMLID_9_" fill="#C9C7C7" d="M1250.728,515.662c-7.724,0-11.9,9.031-6.916,14.936c3.158,3.74,8.176,7.053,16.148,8.325
		c14.706,2.344,23.673,20.225,28.097,32.222c0.682,1.839,3.386,1.342,3.386-0.613v-45.808c0-5.006-4.058-9.061-9.056-9.061H1250.728
		z"/>
	<g>
		
			<text transform="matrix(0.9788 0 0 1 1131.4189 679.3604)" fill="#FCFCFC" font-family="'Righteous-Regular'" font-size="83.5915">houseify</text>
	</g>
</g>
</svg>
