<?xml version="1.0" encoding="utf-8"?>
<!-- Generator: Adobe Illustrator 24.3.0, SVG Export Plug-In . SVG Version: 6.00 Build 0)  -->
<svg version="1.1" id="Capa_1" xmlns="http://www.w3.org/2000/svg" xmlns:xlink="http://www.w3.org/1999/xlink" x="0px" y="0px"
	 viewBox="0 0 1080 1080" style="enable-background:new 0 0 1080 1080;" xml:space="preserve">
<style type="text/css">
	.st0{fill:#21B7B7;}
	.st1{fill:#AAE5E8;}
	.st2{fill:#7BE5F0;}
	.st3{fill:#00E1C4;}
	.st4{fill:#7AEAEA;}
	.st5{fill:#7AEFE3;}
</style>
<g>
	<g>
		<g>
			<g id="XMLID_72_">
				<path class="st0" d="M300.84,821.38c-11.08-10.7-28.69-10.55-39.58,0.34l-80.3,80.3v76.59c0,6.14,4.97,11.11,11.11,11.11h13.26
					c6.14,0,11.11-4.98,11.11-11.11v-56.97l92.45-92.45L300.84,821.38z"/>
			</g>
			<g id="XMLID_71_">
				<path class="st1" d="M238.92,844.07c18.64-10.42,45.48,7.99,45.48,7.99l33.13,29.06c13.4,11.76,33.63,11.1,46.24-1.51l0,0
					l-62.94-58.86c-11.12-10.4-28.48-10.11-39.24,0.65L238.92,844.07z"/>
			</g>
		</g>
	</g>
	<path id="XMLID_15_" class="st2" d="M349.16,825.16c-7.14,0-11,8.34-6.39,13.8c2.92,3.45,7.55,6.52,14.92,7.69
		c13.59,2.17,21.87,18.69,25.96,29.77c0.63,1.7,3.13,1.24,3.13-0.57v-42.33c0-4.62-3.75-8.37-8.37-8.37L349.16,825.16L349.16,825.16
		z"/>
	<g>
		<path class="st3" d="M251.32,969.94h-9.99v-55.97h9.99v17.68c1.2-0.92,2.43-1.58,3.7-1.96c1.27-0.39,2.56-0.58,3.88-0.58
			c2.42,0,4.68,0.47,6.81,1.4s3.97,2.22,5.54,3.85s2.82,3.54,3.73,5.72c0.92,2.18,1.37,4.51,1.37,6.97v22.88h-10.06v-22.88h0.07
			c0-1.05-0.2-2.04-0.59-2.97c-0.39-0.93-0.93-1.75-1.61-2.45c-0.68-0.7-1.48-1.25-2.38-1.64c-0.9-0.4-1.87-0.6-2.89-0.6
			c-1.05,0-2.04,0.2-2.96,0.6c-0.93,0.4-1.73,0.95-2.42,1.64c-0.68,0.7-1.22,1.51-1.61,2.45c-0.39,0.93-0.59,1.92-0.59,2.97V969.94z
			"/>
		<path class="st3" d="M321.32,949.57c0,2.99-0.52,5.78-1.57,8.36c-1.05,2.58-2.48,4.81-4.28,6.69c-1.81,1.88-3.92,3.37-6.35,4.45
			c-2.43,1.08-5.03,1.63-7.81,1.63c-2.76,0-5.35-0.54-7.78-1.63c-2.43-1.08-4.55-2.57-6.37-4.45c-1.82-1.88-3.25-4.11-4.3-6.69
			c-1.05-2.58-1.57-5.37-1.57-8.36c0-3.04,0.52-5.86,1.57-8.45c1.05-2.59,2.48-4.83,4.3-6.71c1.82-1.88,3.94-3.36,6.37-4.43
			c2.43-1.07,5.02-1.61,7.78-1.61c2.78,0,5.39,0.5,7.81,1.51c2.43,1.01,4.54,2.44,6.35,4.3c1.81,1.86,3.23,4.09,4.28,6.69
			C320.8,943.48,321.32,946.38,321.32,949.57z M311.26,949.57c0-1.65-0.26-3.13-0.79-4.47c-0.52-1.33-1.24-2.48-2.14-3.44
			c-0.9-0.96-1.96-1.69-3.17-2.21c-1.21-0.51-2.5-0.77-3.86-0.77c-1.37,0-2.65,0.26-3.86,0.77c-1.21,0.51-2.26,1.25-3.15,2.21
			c-0.89,0.96-1.59,2.11-2.1,3.44c-0.51,1.33-0.77,2.82-0.77,4.47c0,1.54,0.26,2.98,0.77,4.3c0.51,1.32,1.21,2.47,2.1,3.44
			c0.89,0.97,1.94,1.74,3.15,2.3s2.49,0.84,3.86,0.84c1.37,0,2.65-0.26,3.86-0.79c1.21-0.52,2.26-1.26,3.17-2.21
			c0.9-0.95,1.62-2.09,2.14-3.44C311,952.67,311.26,951.19,311.26,949.57z"/>
		<path class="st3" d="M355.65,965.27c-0.81,0.75-1.67,1.45-2.58,2.11c-0.91,0.66-1.87,1.23-2.87,1.72c-1,0.49-2.03,0.87-3.09,1.16
			c-1.06,0.29-2.14,0.43-3.24,0.43c-2.42,0-4.68-0.44-6.81-1.31s-3.98-2.11-5.58-3.72c-1.6-1.61-2.85-3.56-3.77-5.87
			c-0.92-2.31-1.37-4.89-1.37-7.76V929.9h9.95v22.13c0,1.35,0.2,2.55,0.6,3.61c0.4,1.06,0.94,1.95,1.63,2.67
			c0.68,0.72,1.48,1.27,2.4,1.65c0.91,0.37,1.9,0.56,2.95,0.56c1.02,0,1.99-0.24,2.91-0.73c0.92-0.49,1.71-1.13,2.4-1.93
			s1.22-1.7,1.61-2.71c0.39-1.01,0.59-2.05,0.59-3.12V929.9h9.99v40.04h-2.42L355.65,965.27z"/>
		<path class="st3" d="M390.49,969.94h-22.84v-10.17h22.84c0.68,0,1.27-0.25,1.76-0.75c0.49-0.5,0.73-1.1,0.73-1.79
			c0-0.72-0.24-1.2-0.73-1.42c-0.49-0.22-1.07-0.34-1.76-0.34h-10.39c-1.73,0-3.35-0.34-4.87-1.01s-2.83-1.59-3.95-2.75
			c-1.12-1.16-2.01-2.51-2.65-4.06c-0.65-1.54-0.97-3.2-0.97-4.97c0-1.77,0.32-3.43,0.97-4.97c0.65-1.54,1.53-2.89,2.65-4.04
			c1.12-1.15,2.44-2.05,3.95-2.71s3.13-0.99,4.87-0.99h20.24v10.17h-20.24c-0.68,0-1.27,0.25-1.76,0.75
			c-0.49,0.5-0.73,1.1-0.73,1.79c0,0.72,0.24,1.34,0.73,1.85c0.49,0.51,1.07,0.77,1.76,0.77h10.39c1.71,0,3.32,0.29,4.83,0.88
			c1.51,0.59,2.83,1.4,3.95,2.45c1.12,1.05,2.01,2.31,2.67,3.78c0.66,1.47,0.99,3.08,0.99,4.82c0,1.77-0.33,3.42-0.99,4.95
			s-1.55,2.88-2.67,4.04c-1.12,1.16-2.44,2.07-3.95,2.73C393.8,969.61,392.19,969.94,390.49,969.94z"/>
		<path class="st3" d="M416.97,957.18c0.21,0.35,0.45,0.67,0.72,0.95s0.55,0.56,0.85,0.81c0.73,0.64,1.53,1.16,2.39,1.54
			c0.86,0.39,1.76,0.65,2.69,0.78c0.93,0.14,1.88,0.13,2.83-0.01c0.95-0.14,1.87-0.43,2.75-0.85l0.57,10.47
			c-1.58,0.4-3.18,0.61-4.8,0.63c-1.61,0.01-3.2-0.16-4.74-0.52c-1.55-0.36-3.03-0.9-4.45-1.63c-1.42-0.73-2.75-1.63-3.98-2.7
			c-2.08-1.81-3.69-3.91-4.83-6.3c-1.14-2.39-1.78-4.88-1.92-7.48c-0.14-2.6,0.24-5.22,1.15-7.86c0.91-2.63,2.37-5.11,4.41-7.44
			c2.08-2.39,4.38-4.22,6.89-5.5c2.51-1.28,5.06-2.02,7.64-2.21c2.58-0.19,5.12,0.12,7.62,0.95c2.5,0.83,4.79,2.15,6.87,3.96
			c1.23,1.07,2.3,2.28,3.22,3.6c0.91,1.33,1.65,2.73,2.22,4.22c0.56,1.49,0.95,3.04,1.16,4.66c0.21,1.62,0.22,3.24,0.03,4.86
			L416.97,957.18z M434.68,944.69c-0.23-0.44-0.51-0.82-0.81-1.16c-0.31-0.33-0.65-0.66-1.01-0.98c-1.03-0.9-2.17-1.55-3.41-1.96
			c-1.25-0.41-2.52-0.55-3.81-0.42c-1.29,0.13-2.57,0.53-3.83,1.19c-1.26,0.67-2.44,1.63-3.54,2.89c-0.25,0.28-0.51,0.61-0.79,0.99
			c-0.28,0.38-0.55,0.78-0.81,1.2c-0.26,0.42-0.48,0.84-0.69,1.26c-0.2,0.42-0.35,0.82-0.43,1.21L434.68,944.69z"/>
		<path class="st3" d="M462.36,919.02c0,0.95-0.18,1.83-0.53,2.65c-0.35,0.82-0.84,1.54-1.45,2.15c-0.61,0.61-1.32,1.1-2.14,1.46
			c-0.82,0.36-1.69,0.54-2.62,0.54c-0.93,0-1.8-0.18-2.62-0.54c-0.82-0.36-1.52-0.85-2.12-1.46c-0.6-0.61-1.07-1.33-1.43-2.15
			c-0.35-0.82-0.53-1.71-0.53-2.65c0-0.92,0.18-1.8,0.53-2.64c0.35-0.83,0.83-1.56,1.43-2.17c0.6-0.61,1.3-1.1,2.12-1.46
			c0.82-0.36,1.69-0.54,2.62-0.54c0.93,0,1.8,0.18,2.62,0.54c0.82,0.36,1.53,0.85,2.14,1.46s1.09,1.33,1.45,2.17
			C462.18,917.22,462.36,918.1,462.36,919.02z M460.64,969.94h-10.06V929.9h10.06V969.94z"/>
		<path class="st3" d="M480.95,969.94h-9.99v-29.87h-4.87V929.9h4.87v-1.91c0-2.47,0.46-4.79,1.37-6.95
			c0.92-2.17,2.17-4.06,3.77-5.66c1.6-1.61,3.46-2.88,5.58-3.81s4.39-1.4,6.81-1.4h7.5v10.17h-7.5c-1.07,0-2.07,0.19-2.98,0.58
			s-1.71,0.92-2.38,1.61c-0.67,0.69-1.2,1.5-1.59,2.43s-0.59,1.95-0.59,3.05v1.91h12.26v10.17h-12.26V969.94z"/>
		<path class="st3" d="M507.08,985.2v-10.28l5.56,0.08c0.98,0,1.92-0.16,2.82-0.49c0.9-0.32,1.74-0.77,2.51-1.35
			c0.77-0.57,1.45-1.25,2.03-2.04s1.06-1.64,1.43-2.56c-1.1,0.47-2.21,0.95-3.35,1.42c-1.13,0.47-2.28,0.71-3.42,0.71
			c-2.42,0-4.68-0.44-6.81-1.31s-3.98-2.11-5.58-3.72c-1.6-1.61-2.85-3.56-3.77-5.87c-0.92-2.31-1.37-4.89-1.37-7.76V929.9h9.95
			v22.13c0,1.42,0.2,2.66,0.6,3.72c0.4,1.06,0.94,1.94,1.63,2.65c0.68,0.71,1.48,1.24,2.4,1.59c0.91,0.35,1.9,0.52,2.95,0.52
			c1.02,0,1.99-0.24,2.91-0.73c0.92-0.49,1.71-1.13,2.4-1.93s1.22-1.7,1.61-2.71c0.39-1.01,0.59-2.05,0.59-3.12V929.9h10.06v35
			c-0.02,2.82-0.56,5.46-1.61,7.93c-1.05,2.47-2.48,4.62-4.3,6.47c-1.82,1.84-3.93,3.3-6.35,4.38c-2.42,1.07-5,1.61-7.76,1.61
			L507.08,985.2z"/>
	</g>
</g>
<g>
	<g>
		<g>
			<g id="XMLID_5_">
				<path class="st4" d="M700.83,495.92c-10.98-10.61-28.44-10.46-39.24,0.34l-79.6,79.6v75.92c0,6.09,4.93,11.02,11.02,11.02h13.15
					c6.08,0,11.02-4.93,11.02-11.02v-56.48l91.65-91.66L700.83,495.92z"/>
			</g>
			<g id="XMLID_3_">
				<path class="st5" d="M639.43,518.41c18.48-10.33,45.08,7.92,45.08,7.92l32.85,28.81c13.29,11.66,33.34,11,45.84-1.5l0,0
					l-62.4-58.35c-11.02-10.31-28.23-10.02-38.9,0.65L639.43,518.41z"/>
			</g>
		</g>
	</g>
	<g>
		<path class="st3" d="M659.87,640.72h-9.99v-55.97h9.99v17.68c1.2-0.92,2.43-1.58,3.7-1.96c1.27-0.39,2.56-0.58,3.88-0.58
			c2.42,0,4.68,0.47,6.81,1.4s3.97,2.22,5.54,3.85s2.82,3.54,3.73,5.72c0.92,2.18,1.37,4.51,1.37,6.97v22.88h-10.06v-22.88h0.07
			c0-1.05-0.2-2.04-0.59-2.97c-0.39-0.93-0.93-1.75-1.61-2.45c-0.68-0.7-1.48-1.25-2.38-1.64c-0.9-0.4-1.87-0.6-2.89-0.6
			c-1.05,0-2.04,0.2-2.96,0.6s-1.73,0.95-2.42,1.64c-0.68,0.7-1.22,1.51-1.61,2.45c-0.39,0.93-0.59,1.92-0.59,2.97V640.72z"/>
		<path class="st3" d="M729.88,620.34c0,2.99-0.52,5.78-1.57,8.36c-1.05,2.58-2.48,4.81-4.28,6.69c-1.81,1.88-3.92,3.37-6.35,4.45
			c-2.43,1.08-5.03,1.63-7.81,1.63c-2.76,0-5.35-0.54-7.78-1.63c-2.43-1.08-4.55-2.57-6.37-4.45c-1.82-1.88-3.25-4.11-4.3-6.69
			c-1.05-2.58-1.57-5.37-1.57-8.36c0-3.04,0.52-5.86,1.57-8.45c1.05-2.59,2.48-4.83,4.3-6.71c1.82-1.88,3.94-3.36,6.37-4.43
			c2.43-1.07,5.02-1.61,7.78-1.61c2.78,0,5.39,0.5,7.81,1.51c2.43,1.01,4.54,2.44,6.35,4.3c1.81,1.86,3.23,4.09,4.28,6.69
			C729.35,614.25,729.88,617.15,729.88,620.34z M719.81,620.34c0-1.65-0.26-3.13-0.79-4.47c-0.52-1.33-1.24-2.48-2.14-3.44
			c-0.9-0.96-1.96-1.69-3.17-2.21c-1.21-0.51-2.5-0.77-3.86-0.77c-1.37,0-2.65,0.26-3.86,0.77c-1.21,0.51-2.26,1.25-3.15,2.21
			c-0.89,0.96-1.59,2.11-2.1,3.44c-0.51,1.33-0.77,2.82-0.77,4.47c0,1.54,0.26,2.98,0.77,4.3c0.51,1.32,1.21,2.47,2.1,3.44
			c0.89,0.97,1.94,1.74,3.15,2.3s2.49,0.84,3.86,0.84c1.37,0,2.65-0.26,3.86-0.79c1.21-0.52,2.26-1.26,3.17-2.21
			c0.9-0.95,1.62-2.09,2.14-3.44C719.55,623.45,719.81,621.96,719.81,620.34z"/>
		<path class="st3" d="M764.2,636.04c-0.81,0.75-1.67,1.45-2.58,2.11c-0.91,0.66-1.87,1.23-2.87,1.72c-1,0.49-2.03,0.87-3.09,1.16
			c-1.06,0.29-2.14,0.43-3.24,0.43c-2.42,0-4.68-0.44-6.81-1.31s-3.98-2.11-5.58-3.72c-1.6-1.61-2.85-3.56-3.77-5.87
			c-0.92-2.31-1.37-4.89-1.37-7.76v-22.13h9.95v22.13c0,1.35,0.2,2.55,0.6,3.61c0.4,1.06,0.94,1.95,1.63,2.67
			c0.68,0.72,1.48,1.27,2.4,1.65c0.91,0.37,1.9,0.56,2.95,0.56c1.02,0,1.99-0.24,2.91-0.73c0.92-0.49,1.71-1.13,2.4-1.93
			s1.22-1.7,1.61-2.71c0.39-1.01,0.59-2.05,0.59-3.12v-22.13h9.99v40.04h-2.42L764.2,636.04z"/>
		<path class="st3" d="M799.04,640.72h-22.84v-10.17h22.84c0.68,0,1.27-0.25,1.76-0.75c0.49-0.5,0.73-1.1,0.73-1.79
			c0-0.72-0.24-1.2-0.73-1.42c-0.49-0.22-1.07-0.34-1.76-0.34h-10.39c-1.73,0-3.35-0.34-4.87-1.01s-2.83-1.59-3.95-2.75
			c-1.12-1.16-2.01-2.51-2.65-4.06c-0.65-1.54-0.97-3.2-0.97-4.97c0-1.77,0.32-3.43,0.97-4.97c0.65-1.54,1.53-2.89,2.65-4.04
			c1.12-1.15,2.44-2.05,3.95-2.71s3.13-0.99,4.87-0.99h20.24v10.17h-20.24c-0.68,0-1.27,0.25-1.76,0.75
			c-0.49,0.5-0.73,1.1-0.73,1.79c0,0.72,0.24,1.34,0.73,1.85c0.49,0.51,1.07,0.77,1.76,0.77h10.39c1.71,0,3.32,0.29,4.83,0.88
			c1.51,0.59,2.83,1.4,3.95,2.45c1.12,1.05,2.01,2.31,2.67,3.78c0.66,1.47,0.99,3.08,0.99,4.82c0,1.77-0.33,3.42-0.99,4.95
			s-1.55,2.88-2.67,4.04c-1.12,1.16-2.44,2.07-3.95,2.73C802.36,640.39,800.75,640.72,799.04,640.72z"/>
		<path class="st3" d="M825.53,627.96c0.21,0.35,0.45,0.67,0.72,0.95s0.55,0.56,0.85,0.81c0.73,0.64,1.53,1.16,2.39,1.54
			c0.86,0.39,1.76,0.65,2.69,0.78c0.93,0.14,1.88,0.13,2.83-0.01c0.95-0.14,1.87-0.43,2.75-0.85l0.57,10.47
			c-1.58,0.4-3.18,0.61-4.8,0.63c-1.61,0.01-3.2-0.16-4.74-0.52c-1.55-0.36-3.03-0.9-4.45-1.63c-1.42-0.73-2.75-1.63-3.98-2.7
			c-2.08-1.81-3.69-3.91-4.83-6.3c-1.14-2.39-1.78-4.88-1.92-7.48c-0.14-2.6,0.24-5.22,1.15-7.86c0.91-2.63,2.37-5.11,4.41-7.44
			c2.08-2.39,4.38-4.22,6.89-5.5c2.51-1.28,5.06-2.02,7.64-2.21c2.58-0.19,5.12,0.12,7.62,0.95c2.5,0.83,4.79,2.15,6.87,3.96
			c1.23,1.07,2.3,2.28,3.22,3.6c0.91,1.33,1.65,2.73,2.22,4.22c0.56,1.49,0.95,3.04,1.16,4.66c0.21,1.62,0.22,3.24,0.03,4.86
			L825.53,627.96z M843.23,615.47c-0.23-0.44-0.51-0.82-0.81-1.16c-0.31-0.33-0.65-0.66-1.01-0.98c-1.03-0.9-2.17-1.55-3.41-1.96
			c-1.25-0.41-2.52-0.55-3.81-0.42c-1.29,0.13-2.57,0.53-3.83,1.19c-1.26,0.67-2.44,1.63-3.54,2.89c-0.25,0.28-0.51,0.61-0.79,0.99
			c-0.28,0.38-0.55,0.78-0.81,1.2c-0.26,0.42-0.48,0.84-0.69,1.26c-0.2,0.42-0.35,0.82-0.43,1.21L843.23,615.47z"/>
		<path class="st3" d="M870.91,589.8c0,0.95-0.18,1.83-0.53,2.65c-0.35,0.82-0.84,1.54-1.45,2.15c-0.61,0.61-1.32,1.1-2.14,1.46
			c-0.82,0.36-1.69,0.54-2.62,0.54c-0.93,0-1.8-0.18-2.62-0.54c-0.82-0.36-1.52-0.85-2.12-1.46c-0.6-0.61-1.07-1.33-1.43-2.15
			c-0.35-0.82-0.53-1.71-0.53-2.65c0-0.92,0.18-1.8,0.53-2.64c0.35-0.83,0.83-1.56,1.43-2.17c0.6-0.61,1.3-1.1,2.12-1.46
			c0.82-0.36,1.69-0.54,2.62-0.54c0.93,0,1.8,0.18,2.62,0.54c0.82,0.36,1.53,0.85,2.14,1.46s1.09,1.33,1.45,2.17
			C870.74,588,870.91,588.87,870.91,589.8z M869.19,640.72h-10.06v-40.04h10.06V640.72z"/>
		<path class="st3" d="M889.5,640.72h-9.99v-29.87h-4.87v-10.17h4.87v-1.91c0-2.47,0.46-4.79,1.37-6.95
			c0.92-2.17,2.17-4.06,3.77-5.66c1.6-1.61,3.46-2.88,5.58-3.81s4.39-1.4,6.81-1.4h7.5v10.17h-7.5c-1.07,0-2.07,0.19-2.98,0.58
			s-1.71,0.92-2.38,1.61c-0.67,0.69-1.2,1.5-1.59,2.43s-0.59,1.95-0.59,3.05v1.91h12.26v10.17H889.5V640.72z"/>
		<path class="st3" d="M915.63,655.97v-10.28l5.56,0.08c0.98,0,1.92-0.16,2.82-0.49c0.9-0.32,1.74-0.77,2.51-1.35
			c0.77-0.57,1.45-1.25,2.03-2.04s1.06-1.64,1.43-2.56c-1.1,0.47-2.21,0.95-3.35,1.42c-1.13,0.47-2.28,0.71-3.42,0.71
			c-2.42,0-4.68-0.44-6.81-1.31s-3.98-2.11-5.58-3.72c-1.6-1.61-2.85-3.56-3.77-5.87c-0.92-2.31-1.37-4.89-1.37-7.76v-22.13h9.95
			v22.13c0,1.42,0.2,2.66,0.6,3.72c0.4,1.06,0.94,1.94,1.63,2.65c0.68,0.71,1.48,1.24,2.4,1.59c0.91,0.35,1.9,0.52,2.95,0.52
			c1.02,0,1.99-0.24,2.91-0.73c0.92-0.49,1.71-1.13,2.4-1.93s1.22-1.7,1.61-2.71c0.39-1.01,0.59-2.05,0.59-3.12v-22.13h10.06v35
			c-0.02,2.82-0.56,5.46-1.61,7.93c-1.05,2.47-2.48,4.62-4.3,6.47c-1.82,1.84-3.93,3.3-6.35,4.38c-2.42,1.07-5,1.61-7.76,1.61
			L915.63,655.97z"/>
	</g>
	<g>
		<g>
			<g id="XMLID_2_">
				<path class="st4" d="M700.83,495.92c-10.98-10.61-28.44-10.46-39.24,0.34l-79.6,79.6v75.92c0,6.09,4.93,11.02,11.02,11.02h13.15
					c6.08,0,11.02-4.93,11.02-11.02v-56.48l91.65-91.66L700.83,495.92z"/>
			</g>
			<g id="XMLID_1_">
				<path class="st5" d="M639.43,518.41c18.48-10.33,45.08,7.92,45.08,7.92l32.85,28.81c13.29,11.66,33.34,11,45.84-1.5l0,0
					l-62.4-58.35c-11.02-10.31-28.23-10.02-38.9,0.65L639.43,518.41z"/>
			</g>
		</g>
	</g>
	<g>
		<path class="st3" d="M659.87,640.72h-9.99v-55.97h9.99v17.68c1.2-0.92,2.43-1.58,3.7-1.96c1.27-0.39,2.56-0.58,3.88-0.58
			c2.42,0,4.68,0.47,6.81,1.4s3.97,2.22,5.54,3.85s2.82,3.54,3.73,5.72c0.92,2.18,1.37,4.51,1.37,6.97v22.88h-10.06v-22.88h0.07
			c0-1.05-0.2-2.04-0.59-2.97c-0.39-0.93-0.93-1.75-1.61-2.45c-0.68-0.7-1.48-1.25-2.38-1.64c-0.9-0.4-1.87-0.6-2.89-0.6
			c-1.05,0-2.04,0.2-2.96,0.6s-1.73,0.95-2.42,1.64c-0.68,0.7-1.22,1.51-1.61,2.45c-0.39,0.93-0.59,1.92-0.59,2.97V640.72z"/>
		<path class="st3" d="M729.88,620.34c0,2.99-0.52,5.78-1.57,8.36c-1.05,2.58-2.48,4.81-4.28,6.69c-1.81,1.88-3.92,3.37-6.35,4.45
			c-2.43,1.08-5.03,1.63-7.81,1.63c-2.76,0-5.35-0.54-7.78-1.63c-2.43-1.08-4.55-2.57-6.37-4.45c-1.82-1.88-3.25-4.11-4.3-6.69
			c-1.05-2.58-1.57-5.37-1.57-8.36c0-3.04,0.52-5.86,1.57-8.45c1.05-2.59,2.48-4.83,4.3-6.71c1.82-1.88,3.94-3.36,6.37-4.43
			c2.43-1.07,5.02-1.61,7.78-1.61c2.78,0,5.39,0.5,7.81,1.51c2.43,1.01,4.54,2.44,6.35,4.3c1.81,1.86,3.23,4.09,4.28,6.69
			C729.35,614.25,729.88,617.15,729.88,620.34z M719.81,620.34c0-1.65-0.26-3.13-0.79-4.47c-0.52-1.33-1.24-2.48-2.14-3.44
			c-0.9-0.96-1.96-1.69-3.17-2.21c-1.21-0.51-2.5-0.77-3.86-0.77c-1.37,0-2.65,0.26-3.86,0.77c-1.21,0.51-2.26,1.25-3.15,2.21
			c-0.89,0.96-1.59,2.11-2.1,3.44c-0.51,1.33-0.77,2.82-0.77,4.47c0,1.54,0.26,2.98,0.77,4.3c0.51,1.32,1.21,2.47,2.1,3.44
			c0.89,0.97,1.94,1.74,3.15,2.3s2.49,0.84,3.86,0.84c1.37,0,2.65-0.26,3.86-0.79c1.21-0.52,2.26-1.26,3.17-2.21
			c0.9-0.95,1.62-2.09,2.14-3.44C719.55,623.45,719.81,621.96,719.81,620.34z"/>
		<path class="st3" d="M764.2,636.04c-0.81,0.75-1.67,1.45-2.58,2.11c-0.91,0.66-1.87,1.23-2.87,1.72c-1,0.49-2.03,0.87-3.09,1.16
			c-1.06,0.29-2.14,0.43-3.24,0.43c-2.42,0-4.68-0.44-6.81-1.31s-3.98-2.11-5.58-3.72c-1.6-1.61-2.85-3.56-3.77-5.87
			c-0.92-2.31-1.37-4.89-1.37-7.76v-22.13h9.95v22.13c0,1.35,0.2,2.55,0.6,3.61c0.4,1.06,0.94,1.95,1.63,2.67
			c0.68,0.72,1.48,1.27,2.4,1.65c0.91,0.37,1.9,0.56,2.95,0.56c1.02,0,1.99-0.24,2.91-0.73c0.92-0.49,1.71-1.13,2.4-1.93
			s1.22-1.7,1.61-2.71c0.39-1.01,0.59-2.05,0.59-3.12v-22.13h9.99v40.04h-2.42L764.2,636.04z"/>
		<path class="st3" d="M799.04,640.72h-22.84v-10.17h22.84c0.68,0,1.27-0.25,1.76-0.75c0.49-0.5,0.73-1.1,0.73-1.79
			c0-0.72-0.24-1.2-0.73-1.42c-0.49-0.22-1.07-0.34-1.76-0.34h-10.39c-1.73,0-3.35-0.34-4.87-1.01s-2.83-1.59-3.95-2.75
			c-1.12-1.16-2.01-2.51-2.65-4.06c-0.65-1.54-0.97-3.2-0.97-4.97c0-1.77,0.32-3.43,0.97-4.97c0.65-1.54,1.53-2.89,2.65-4.04
			c1.12-1.15,2.44-2.05,3.95-2.71s3.13-0.99,4.87-0.99h20.24v10.17h-20.24c-0.68,0-1.27,0.25-1.76,0.75
			c-0.49,0.5-0.73,1.1-0.73,1.79c0,0.72,0.24,1.34,0.73,1.85c0.49,0.51,1.07,0.77,1.76,0.77h10.39c1.71,0,3.32,0.29,4.83,0.88
			c1.51,0.59,2.83,1.4,3.95,2.45c1.12,1.05,2.01,2.31,2.67,3.78c0.66,1.47,0.99,3.08,0.99,4.82c0,1.77-0.33,3.42-0.99,4.95
			s-1.55,2.88-2.67,4.04c-1.12,1.16-2.44,2.07-3.95,2.73C802.36,640.39,800.75,640.72,799.04,640.72z"/>
		<path class="st3" d="M825.53,627.96c0.21,0.35,0.45,0.67,0.72,0.95s0.55,0.56,0.85,0.81c0.73,0.64,1.53,1.16,2.39,1.54
			c0.86,0.39,1.76,0.65,2.69,0.78c0.93,0.14,1.88,0.13,2.83-0.01c0.95-0.14,1.87-0.43,2.75-0.85l0.57,10.47
			c-1.58,0.4-3.18,0.61-4.8,0.63c-1.61,0.01-3.2-0.16-4.74-0.52c-1.55-0.36-3.03-0.9-4.45-1.63c-1.42-0.73-2.75-1.63-3.98-2.7
			c-2.08-1.81-3.69-3.91-4.83-6.3c-1.14-2.39-1.78-4.88-1.92-7.48c-0.14-2.6,0.24-5.22,1.15-7.86c0.91-2.63,2.37-5.11,4.41-7.44
			c2.08-2.39,4.38-4.22,6.89-5.5c2.51-1.28,5.06-2.02,7.64-2.21c2.58-0.19,5.12,0.12,7.62,0.95c2.5,0.83,4.79,2.15,6.87,3.96
			c1.23,1.07,2.3,2.28,3.22,3.6c0.91,1.33,1.65,2.73,2.22,4.22c0.56,1.49,0.95,3.04,1.16,4.66c0.21,1.62,0.22,3.24,0.03,4.86
			L825.53,627.96z M843.23,615.47c-0.23-0.44-0.51-0.82-0.81-1.16c-0.31-0.33-0.65-0.66-1.01-0.98c-1.03-0.9-2.17-1.55-3.41-1.96
			c-1.25-0.41-2.52-0.55-3.81-0.42c-1.29,0.13-2.57,0.53-3.83,1.19c-1.26,0.67-2.44,1.63-3.54,2.89c-0.25,0.28-0.51,0.61-0.79,0.99
			c-0.28,0.38-0.55,0.78-0.81,1.2c-0.26,0.42-0.48,0.84-0.69,1.26c-0.2,0.42-0.35,0.82-0.43,1.21L843.23,615.47z"/>
		<path class="st3" d="M870.91,589.8c0,0.95-0.18,1.83-0.53,2.65c-0.35,0.82-0.84,1.54-1.45,2.15c-0.61,0.61-1.32,1.1-2.14,1.46
			c-0.82,0.36-1.69,0.54-2.62,0.54c-0.93,0-1.8-0.18-2.62-0.54c-0.82-0.36-1.52-0.85-2.12-1.46c-0.6-0.61-1.07-1.33-1.43-2.15
			c-0.35-0.82-0.53-1.71-0.53-2.65c0-0.92,0.18-1.8,0.53-2.64c0.35-0.83,0.83-1.56,1.43-2.17c0.6-0.61,1.3-1.1,2.12-1.46
			c0.82-0.36,1.69-0.54,2.62-0.54c0.93,0,1.8,0.18,2.62,0.54c0.82,0.36,1.53,0.85,2.14,1.46s1.09,1.33,1.45,2.17
			C870.74,588,870.91,588.87,870.91,589.8z M869.19,640.72h-10.06v-40.04h10.06V640.72z"/>
		<path class="st3" d="M889.5,640.72h-9.99v-29.87h-4.87v-10.17h4.87v-1.91c0-2.47,0.46-4.79,1.37-6.95
			c0.92-2.17,2.17-4.06,3.77-5.66c1.6-1.61,3.46-2.88,5.58-3.81s4.39-1.4,6.81-1.4h7.5v10.17h-7.5c-1.07,0-2.07,0.19-2.98,0.58
			s-1.71,0.92-2.38,1.61c-0.67,0.69-1.2,1.5-1.59,2.43s-0.59,1.95-0.59,3.05v1.91h12.26v10.17H889.5V640.72z"/>
		<path class="st3" d="M915.63,655.97v-10.28l5.56,0.08c0.98,0,1.92-0.16,2.82-0.49c0.9-0.32,1.74-0.77,2.51-1.35
			c0.77-0.57,1.45-1.25,2.03-2.04s1.06-1.64,1.43-2.56c-1.1,0.47-2.21,0.95-3.35,1.42c-1.13,0.47-2.28,0.71-3.42,0.71
			c-2.42,0-4.68-0.44-6.81-1.31s-3.98-2.11-5.58-3.72c-1.6-1.61-2.85-3.56-3.77-5.87c-0.92-2.31-1.37-4.89-1.37-7.76v-22.13h9.95
			v22.13c0,1.42,0.2,2.66,0.6,3.72c0.4,1.06,0.94,1.94,1.63,2.65c0.68,0.71,1.48,1.24,2.4,1.59c0.91,0.35,1.9,0.52,2.95,0.52
			c1.02,0,1.99-0.24,2.91-0.73c0.92-0.49,1.71-1.13,2.4-1.93s1.22-1.7,1.61-2.71c0.39-1.01,0.59-2.05,0.59-3.12v-22.13h10.06v35
			c-0.02,2.82-0.56,5.46-1.61,7.93c-1.05,2.47-2.48,4.62-4.3,6.47c-1.82,1.84-3.93,3.3-6.35,4.38c-2.42,1.07-5,1.61-7.76,1.61
			L915.63,655.97z"/>
	</g>
	<g>
		<g>
			<g id="XMLID_8_">
				<path class="st4" d="M700.83,495.92c-10.98-10.61-28.44-10.46-39.24,0.34l-79.6,79.6v75.92c0,6.09,4.93,11.02,11.02,11.02h13.15
					c6.08,0,11.02-4.93,11.02-11.02v-56.48l91.65-91.66L700.83,495.92z"/>
			</g>
			<g id="XMLID_7_">
				<path class="st5" d="M639.43,518.41c18.48-10.33,45.08,7.92,45.08,7.92l32.85,28.81c13.29,11.66,33.34,11,45.84-1.5l0,0
					l-62.4-58.35c-11.02-10.31-28.23-10.02-38.9,0.65L639.43,518.41z"/>
			</g>
		</g>
	</g>
	<g>
		<path class="st3" d="M659.87,640.72h-9.99v-55.97h9.99v17.68c1.2-0.92,2.43-1.58,3.7-1.96c1.27-0.39,2.56-0.58,3.88-0.58
			c2.42,0,4.68,0.47,6.81,1.4s3.97,2.22,5.54,3.85s2.82,3.54,3.73,5.72c0.92,2.18,1.37,4.51,1.37,6.97v22.88h-10.06v-22.88h0.07
			c0-1.05-0.2-2.04-0.59-2.97c-0.39-0.93-0.93-1.75-1.61-2.45c-0.68-0.7-1.48-1.25-2.38-1.64c-0.9-0.4-1.87-0.6-2.89-0.6
			c-1.05,0-2.04,0.2-2.96,0.6s-1.73,0.95-2.42,1.64c-0.68,0.7-1.22,1.51-1.61,2.45c-0.39,0.93-0.59,1.92-0.59,2.97V640.72z"/>
		<path class="st3" d="M729.88,620.34c0,2.99-0.52,5.78-1.57,8.36c-1.05,2.58-2.48,4.81-4.28,6.69c-1.81,1.88-3.92,3.37-6.35,4.45
			c-2.43,1.08-5.03,1.63-7.81,1.63c-2.76,0-5.35-0.54-7.78-1.63c-2.43-1.08-4.55-2.57-6.37-4.45c-1.82-1.88-3.25-4.11-4.3-6.69
			c-1.05-2.58-1.57-5.37-1.57-8.36c0-3.04,0.52-5.86,1.57-8.45c1.05-2.59,2.48-4.83,4.3-6.71c1.82-1.88,3.94-3.36,6.37-4.43
			c2.43-1.07,5.02-1.61,7.78-1.61c2.78,0,5.39,0.5,7.81,1.51c2.43,1.01,4.54,2.44,6.35,4.3c1.81,1.86,3.23,4.09,4.28,6.69
			C729.35,614.25,729.88,617.15,729.88,620.34z M719.81,620.34c0-1.65-0.26-3.13-0.79-4.47c-0.52-1.33-1.24-2.48-2.14-3.44
			c-0.9-0.96-1.96-1.69-3.17-2.21c-1.21-0.51-2.5-0.77-3.86-0.77c-1.37,0-2.65,0.26-3.86,0.77c-1.21,0.51-2.26,1.25-3.15,2.21
			c-0.89,0.96-1.59,2.11-2.1,3.44c-0.51,1.33-0.77,2.82-0.77,4.47c0,1.54,0.26,2.98,0.77,4.3c0.51,1.32,1.21,2.47,2.1,3.44
			c0.89,0.97,1.94,1.74,3.15,2.3s2.49,0.84,3.86,0.84c1.37,0,2.65-0.26,3.86-0.79c1.21-0.52,2.26-1.26,3.17-2.21
			c0.9-0.95,1.62-2.09,2.14-3.44C719.55,623.45,719.81,621.96,719.81,620.34z"/>
		<path class="st3" d="M764.2,636.04c-0.81,0.75-1.67,1.45-2.58,2.11c-0.91,0.66-1.87,1.23-2.87,1.72c-1,0.49-2.03,0.87-3.09,1.16
			c-1.06,0.29-2.14,0.43-3.24,0.43c-2.42,0-4.68-0.44-6.81-1.31s-3.98-2.11-5.58-3.72c-1.6-1.61-2.85-3.56-3.77-5.87
			c-0.92-2.31-1.37-4.89-1.37-7.76v-22.13h9.95v22.13c0,1.35,0.2,2.55,0.6,3.61c0.4,1.06,0.94,1.95,1.63,2.67
			c0.68,0.72,1.48,1.27,2.4,1.65c0.91,0.37,1.9,0.56,2.95,0.56c1.02,0,1.99-0.24,2.91-0.73c0.92-0.49,1.71-1.13,2.4-1.93
			s1.22-1.7,1.61-2.71c0.39-1.01,0.59-2.05,0.59-3.12v-22.13h9.99v40.04h-2.42L764.2,636.04z"/>
		<path class="st3" d="M799.04,640.72h-22.84v-10.17h22.84c0.68,0,1.27-0.25,1.76-0.75c0.49-0.5,0.73-1.1,0.73-1.79
			c0-0.72-0.24-1.2-0.73-1.42c-0.49-0.22-1.07-0.34-1.76-0.34h-10.39c-1.73,0-3.35-0.34-4.87-1.01s-2.83-1.59-3.95-2.75
			c-1.12-1.16-2.01-2.51-2.65-4.06c-0.65-1.54-0.97-3.2-0.97-4.97c0-1.77,0.32-3.43,0.97-4.97c0.65-1.54,1.53-2.89,2.65-4.04
			c1.12-1.15,2.44-2.05,3.95-2.71s3.13-0.99,4.87-0.99h20.24v10.17h-20.24c-0.68,0-1.27,0.25-1.76,0.75
			c-0.49,0.5-0.73,1.1-0.73,1.79c0,0.72,0.24,1.34,0.73,1.85c0.49,0.51,1.07,0.77,1.76,0.77h10.39c1.71,0,3.32,0.29,4.83,0.88
			c1.51,0.59,2.83,1.4,3.95,2.45c1.12,1.05,2.01,2.31,2.67,3.78c0.66,1.47,0.99,3.08,0.99,4.82c0,1.77-0.33,3.42-0.99,4.95
			s-1.55,2.88-2.67,4.04c-1.12,1.16-2.44,2.07-3.95,2.73C802.36,640.39,800.75,640.72,799.04,640.72z"/>
		<path class="st3" d="M825.53,627.96c0.21,0.35,0.45,0.67,0.72,0.95s0.55,0.56,0.85,0.81c0.73,0.64,1.53,1.16,2.39,1.54
			c0.86,0.39,1.76,0.65,2.69,0.78c0.93,0.14,1.88,0.13,2.83-0.01c0.95-0.14,1.87-0.43,2.75-0.85l0.57,10.47
			c-1.58,0.4-3.18,0.61-4.8,0.63c-1.61,0.01-3.2-0.16-4.74-0.52c-1.55-0.36-3.03-0.9-4.45-1.63c-1.42-0.73-2.75-1.63-3.98-2.7
			c-2.08-1.81-3.69-3.91-4.83-6.3c-1.14-2.39-1.78-4.88-1.92-7.48c-0.14-2.6,0.24-5.22,1.15-7.86c0.91-2.63,2.37-5.11,4.41-7.44
			c2.08-2.39,4.38-4.22,6.89-5.5c2.51-1.28,5.06-2.02,7.64-2.21c2.58-0.19,5.12,0.12,7.62,0.95c2.5,0.83,4.79,2.15,6.87,3.96
			c1.23,1.07,2.3,2.28,3.22,3.6c0.91,1.33,1.65,2.73,2.22,4.22c0.56,1.49,0.95,3.04,1.16,4.66c0.21,1.62,0.22,3.24,0.03,4.86
			L825.53,627.96z M843.23,615.47c-0.23-0.44-0.51-0.82-0.81-1.16c-0.31-0.33-0.65-0.66-1.01-0.98c-1.03-0.9-2.17-1.55-3.41-1.96
			c-1.25-0.41-2.52-0.55-3.81-0.42c-1.29,0.13-2.57,0.53-3.83,1.19c-1.26,0.67-2.44,1.63-3.54,2.89c-0.25,0.28-0.51,0.61-0.79,0.99
			c-0.28,0.38-0.55,0.78-0.81,1.2c-0.26,0.42-0.48,0.84-0.69,1.26c-0.2,0.42-0.35,0.82-0.43,1.21L843.23,615.47z"/>
		<path class="st3" d="M870.91,589.8c0,0.95-0.18,1.83-0.53,2.65c-0.35,0.82-0.84,1.54-1.45,2.15c-0.61,0.61-1.32,1.1-2.14,1.46
			c-0.82,0.36-1.69,0.54-2.62,0.54c-0.93,0-1.8-0.18-2.62-0.54c-0.82-0.36-1.52-0.85-2.12-1.46c-0.6-0.61-1.07-1.33-1.43-2.15
			c-0.35-0.82-0.53-1.71-0.53-2.65c0-0.92,0.18-1.8,0.53-2.64c0.35-0.83,0.83-1.56,1.43-2.17c0.6-0.61,1.3-1.1,2.12-1.46
			c0.82-0.36,1.69-0.54,2.62-0.54c0.93,0,1.8,0.18,2.62,0.54c0.82,0.36,1.53,0.85,2.14,1.46s1.09,1.33,1.45,2.17
			C870.74,588,870.91,588.87,870.91,589.8z M869.19,640.72h-10.06v-40.04h10.06V640.72z"/>
		<path class="st3" d="M889.5,640.72h-9.99v-29.87h-4.87v-10.17h4.87v-1.91c0-2.47,0.46-4.79,1.37-6.95
			c0.92-2.17,2.17-4.06,3.77-5.66c1.6-1.61,3.46-2.88,5.58-3.81s4.39-1.4,6.81-1.4h7.5v10.17h-7.5c-1.07,0-2.07,0.19-2.98,0.58
			s-1.71,0.92-2.38,1.61c-0.67,0.69-1.2,1.5-1.59,2.43s-0.59,1.95-0.59,3.05v1.91h12.26v10.17H889.5V640.72z"/>
		<path class="st3" d="M915.63,655.97v-10.28l5.56,0.08c0.98,0,1.92-0.16,2.82-0.49c0.9-0.32,1.74-0.77,2.51-1.35
			c0.77-0.57,1.45-1.25,2.03-2.04s1.06-1.64,1.43-2.56c-1.1,0.47-2.21,0.95-3.35,1.42c-1.13,0.47-2.28,0.71-3.42,0.71
			c-2.42,0-4.68-0.44-6.81-1.31s-3.98-2.11-5.58-3.72c-1.6-1.61-2.85-3.56-3.77-5.87c-0.92-2.31-1.37-4.89-1.37-7.76v-22.13h9.95
			v22.13c0,1.42,0.2,2.66,0.6,3.72c0.4,1.06,0.94,1.94,1.63,2.65c0.68,0.71,1.48,1.24,2.4,1.59c0.91,0.35,1.9,0.52,2.95,0.52
			c1.02,0,1.99-0.24,2.91-0.73c0.92-0.49,1.71-1.13,2.4-1.93s1.22-1.7,1.61-2.71c0.39-1.01,0.59-2.05,0.59-3.12v-22.13h10.06v35
			c-0.02,2.82-0.56,5.46-1.61,7.93c-1.05,2.47-2.48,4.62-4.3,6.47c-1.82,1.84-3.93,3.3-6.35,4.38c-2.42,1.07-5,1.61-7.76,1.61
			L915.63,655.97z"/>
	</g>
	<g>
		<g>
			<g id="XMLID_6_">
				<path class="st4" d="M700.83,495.92c-10.98-10.61-28.44-10.46-39.24,0.34l-79.6,79.6v75.92c0,6.09,4.93,11.02,11.02,11.02h13.15
					c6.08,0,11.02-4.93,11.02-11.02v-56.48l91.65-91.66L700.83,495.92z"/>
			</g>
			<g id="XMLID_4_">
				<path class="st5" d="M639.43,518.41c18.48-10.33,45.08,7.92,45.08,7.92l32.85,28.81c13.29,11.66,33.34,11,45.84-1.5l0,0
					l-62.4-58.35c-11.02-10.31-28.23-10.02-38.9,0.65L639.43,518.41z"/>
			</g>
		</g>
	</g>
	<path id="XMLID_13_" class="st2" d="M755.3,499.45c-7.14,0-11,8.34-6.39,13.8c2.91,3.45,7.55,6.52,14.92,7.69
		c13.59,2.17,21.87,18.69,25.96,29.77c0.63,1.7,3.13,1.24,3.13-0.57v-42.33c0-4.62-3.75-8.37-8.37-8.37L755.3,499.45L755.3,499.45z"
		/>
</g>
<g>
	<g>
		<g>
			<g id="XMLID_12_">
				<path class="st4" d="M300.35,135.83c-10.98-10.61-28.44-10.47-39.24,0.34l-79.6,79.6v75.92c0,6.09,4.93,11.02,11.02,11.02h13.15
					c6.08,0,11.02-4.93,11.02-11.02v-56.48l91.65-91.66L300.35,135.83z"/>
			</g>
			<g id="XMLID_11_">
				<path class="st5" d="M238.95,158.32c18.48-10.33,45.08,7.92,45.08,7.92l32.85,28.81c13.29,11.66,33.34,11,45.84-1.5l0,0
					l-62.4-58.35c-11.02-10.31-28.23-10.02-38.9,0.65L238.95,158.32z"/>
			</g>
		</g>
	</g>
	<g>
		<path class="st3" d="M259.39,280.62h-9.99v-55.97h9.99v17.68c1.2-0.92,2.43-1.58,3.7-1.96c1.27-0.39,2.56-0.58,3.88-0.58
			c2.42,0,4.68,0.47,6.81,1.4s3.97,2.22,5.54,3.85s2.82,3.54,3.73,5.72c0.92,2.18,1.37,4.51,1.37,6.97v22.88h-10.06v-22.88h0.07
			c0-1.05-0.2-2.04-0.59-2.97c-0.39-0.93-0.93-1.75-1.61-2.45c-0.68-0.7-1.48-1.25-2.38-1.64c-0.9-0.4-1.87-0.6-2.89-0.6
			c-1.05,0-2.04,0.2-2.96,0.6s-1.73,0.95-2.42,1.64c-0.68,0.7-1.22,1.51-1.61,2.45c-0.39,0.93-0.59,1.92-0.59,2.97V280.62z"/>
		<path class="st3" d="M329.4,260.25c0,2.99-0.52,5.78-1.57,8.36c-1.05,2.58-2.48,4.81-4.28,6.69c-1.81,1.88-3.92,3.37-6.35,4.45
			c-2.43,1.08-5.03,1.63-7.81,1.63c-2.76,0-5.35-0.54-7.78-1.63c-2.43-1.08-4.55-2.57-6.37-4.45c-1.82-1.88-3.25-4.11-4.3-6.69
			c-1.05-2.58-1.57-5.37-1.57-8.36c0-3.04,0.52-5.86,1.57-8.45c1.05-2.59,2.48-4.83,4.3-6.71c1.82-1.88,3.94-3.36,6.37-4.43
			c2.43-1.07,5.02-1.61,7.78-1.61c2.78,0,5.39,0.5,7.81,1.51c2.43,1.01,4.54,2.44,6.35,4.3c1.81,1.86,3.23,4.09,4.28,6.69
			C328.87,254.16,329.4,257.06,329.4,260.25z M319.33,260.25c0-1.65-0.26-3.13-0.79-4.47c-0.52-1.33-1.24-2.48-2.14-3.44
			c-0.9-0.96-1.96-1.69-3.17-2.21c-1.21-0.51-2.5-0.77-3.86-0.77c-1.37,0-2.65,0.26-3.86,0.77c-1.21,0.51-2.26,1.25-3.15,2.21
			c-0.89,0.96-1.59,2.11-2.1,3.44c-0.51,1.33-0.77,2.82-0.77,4.47c0,1.54,0.26,2.98,0.77,4.3c0.51,1.32,1.21,2.47,2.1,3.44
			c0.89,0.97,1.94,1.74,3.15,2.3s2.49,0.84,3.86,0.84c1.37,0,2.65-0.26,3.86-0.79c1.21-0.52,2.26-1.26,3.17-2.21
			c0.9-0.95,1.62-2.09,2.14-3.44C319.07,263.35,319.33,261.87,319.33,260.25z"/>
		<path class="st3" d="M363.72,275.95c-0.81,0.75-1.67,1.45-2.58,2.11c-0.91,0.66-1.87,1.23-2.87,1.72c-1,0.49-2.03,0.87-3.09,1.16
			c-1.06,0.29-2.14,0.43-3.24,0.43c-2.42,0-4.68-0.44-6.81-1.31s-3.98-2.11-5.58-3.72c-1.6-1.61-2.85-3.56-3.77-5.87
			c-0.92-2.31-1.37-4.89-1.37-7.76v-22.13h9.95v22.13c0,1.35,0.2,2.55,0.6,3.61c0.4,1.06,0.94,1.95,1.63,2.67
			c0.68,0.72,1.48,1.27,2.4,1.65c0.91,0.37,1.9,0.56,2.95,0.56c1.02,0,1.99-0.24,2.91-0.73c0.92-0.49,1.71-1.13,2.4-1.93
			s1.22-1.7,1.61-2.71c0.39-1.01,0.59-2.05,0.59-3.12v-22.13h9.99v40.04h-2.42L363.72,275.95z"/>
		<path class="st3" d="M398.56,280.62h-22.84v-10.17h22.84c0.68,0,1.27-0.25,1.76-0.75c0.49-0.5,0.73-1.1,0.73-1.79
			c0-0.72-0.24-1.2-0.73-1.42c-0.49-0.22-1.07-0.34-1.76-0.34h-10.39c-1.73,0-3.35-0.34-4.87-1.01s-2.83-1.59-3.95-2.75
			c-1.12-1.16-2.01-2.51-2.65-4.06c-0.65-1.54-0.97-3.2-0.97-4.97c0-1.77,0.32-3.43,0.97-4.97c0.65-1.54,1.53-2.89,2.65-4.04
			c1.12-1.15,2.44-2.05,3.95-2.71s3.13-0.99,4.87-0.99h20.24v10.17h-20.24c-0.68,0-1.27,0.25-1.76,0.75
			c-0.49,0.5-0.73,1.1-0.73,1.79c0,0.72,0.24,1.34,0.73,1.85c0.49,0.51,1.07,0.77,1.76,0.77h10.39c1.71,0,3.32,0.29,4.83,0.88
			c1.51,0.59,2.83,1.4,3.95,2.45c1.12,1.05,2.01,2.31,2.67,3.78c0.66,1.47,0.99,3.08,0.99,4.82c0,1.77-0.33,3.42-0.99,4.95
			s-1.55,2.88-2.67,4.04c-1.12,1.16-2.44,2.07-3.95,2.73C401.88,280.29,400.27,280.62,398.56,280.62z"/>
		<path class="st3" d="M425.05,267.86c0.21,0.35,0.45,0.67,0.72,0.95s0.55,0.56,0.85,0.81c0.73,0.64,1.53,1.16,2.39,1.54
			c0.86,0.39,1.76,0.65,2.69,0.78c0.93,0.14,1.88,0.13,2.83-0.01c0.95-0.14,1.87-0.43,2.75-0.85l0.57,10.47
			c-1.58,0.4-3.18,0.61-4.8,0.63c-1.61,0.01-3.2-0.16-4.74-0.52c-1.55-0.36-3.03-0.9-4.45-1.63c-1.42-0.73-2.75-1.63-3.98-2.7
			c-2.08-1.81-3.69-3.91-4.83-6.3c-1.14-2.39-1.78-4.88-1.92-7.48c-0.14-2.6,0.24-5.22,1.15-7.86c0.91-2.63,2.37-5.11,4.41-7.44
			c2.08-2.39,4.38-4.22,6.89-5.5c2.51-1.28,5.06-2.02,7.64-2.21c2.58-0.19,5.12,0.12,7.62,0.95c2.5,0.83,4.79,2.15,6.87,3.96
			c1.23,1.07,2.3,2.28,3.22,3.6c0.91,1.33,1.65,2.73,2.22,4.22c0.56,1.49,0.95,3.04,1.16,4.66c0.21,1.62,0.22,3.24,0.03,4.86
			L425.05,267.86z M442.75,255.37c-0.23-0.44-0.51-0.82-0.81-1.16c-0.31-0.33-0.65-0.66-1.01-0.98c-1.03-0.9-2.17-1.55-3.41-1.96
			c-1.25-0.41-2.52-0.55-3.81-0.42c-1.29,0.13-2.57,0.53-3.83,1.19c-1.26,0.67-2.44,1.63-3.54,2.89c-0.25,0.28-0.51,0.61-0.79,0.99
			c-0.28,0.38-0.55,0.78-0.81,1.2c-0.26,0.42-0.48,0.84-0.69,1.26c-0.2,0.42-0.35,0.82-0.43,1.21L442.75,255.37z"/>
		<path class="st3" d="M470.44,229.7c0,0.95-0.18,1.83-0.53,2.65c-0.35,0.82-0.84,1.54-1.45,2.15c-0.61,0.61-1.32,1.1-2.14,1.46
			c-0.82,0.36-1.69,0.54-2.62,0.54c-0.93,0-1.8-0.18-2.62-0.54c-0.82-0.36-1.52-0.85-2.12-1.46c-0.6-0.61-1.07-1.33-1.43-2.15
			c-0.35-0.82-0.53-1.71-0.53-2.65c0-0.92,0.18-1.8,0.53-2.64c0.35-0.83,0.83-1.56,1.43-2.17c0.6-0.61,1.3-1.1,2.12-1.46
			c0.82-0.36,1.69-0.54,2.62-0.54c0.93,0,1.8,0.18,2.62,0.54c0.82,0.36,1.53,0.85,2.14,1.46s1.09,1.33,1.45,2.17
			C470.26,227.9,470.44,228.78,470.44,229.7z M468.72,280.62h-10.06v-40.04h10.06V280.62z"/>
		<path class="st3" d="M489.03,280.62h-9.99v-29.87h-4.87v-10.17h4.87v-1.91c0-2.47,0.46-4.79,1.37-6.95
			c0.92-2.17,2.17-4.06,3.77-5.66c1.6-1.61,3.46-2.88,5.58-3.81s4.39-1.4,6.81-1.4h7.5v10.17h-7.5c-1.07,0-2.07,0.19-2.98,0.58
			s-1.71,0.92-2.38,1.61c-0.67,0.69-1.2,1.5-1.59,2.43s-0.59,1.95-0.59,3.05v1.91h12.26v10.17h-12.26V280.62z"/>
		<path class="st3" d="M515.16,295.88v-10.28l5.56,0.08c0.98,0,1.92-0.16,2.82-0.49c0.9-0.32,1.74-0.77,2.51-1.35
			c0.77-0.57,1.45-1.25,2.03-2.04s1.06-1.64,1.43-2.56c-1.1,0.47-2.21,0.95-3.35,1.42c-1.13,0.47-2.28,0.71-3.42,0.71
			c-2.42,0-4.68-0.44-6.81-1.31s-3.98-2.11-5.58-3.72c-1.6-1.61-2.85-3.56-3.77-5.87c-0.92-2.31-1.37-4.89-1.37-7.76v-22.13h9.95
			v22.13c0,1.42,0.2,2.66,0.6,3.72c0.4,1.06,0.94,1.94,1.63,2.65c0.68,0.71,1.48,1.24,2.4,1.59c0.91,0.35,1.9,0.52,2.95,0.52
			c1.02,0,1.99-0.24,2.91-0.73c0.92-0.49,1.71-1.13,2.4-1.93s1.22-1.7,1.61-2.71c0.39-1.01,0.59-2.05,0.59-3.12v-22.13h10.06v35
			c-0.02,2.82-0.56,5.46-1.61,7.93c-1.05,2.47-2.48,4.62-4.3,6.47c-1.82,1.84-3.93,3.3-6.35,4.38c-2.42,1.07-5,1.61-7.76,1.61
			L515.16,295.88z"/>
	</g>
	<g>
		<g>
			<g id="XMLID_10_">
				<path class="st0" d="M300.35,135.83c-10.98-10.61-28.44-10.47-39.24,0.34l-79.6,79.6v75.92c0,6.09,4.93,11.02,11.02,11.02h13.15
					c6.08,0,11.02-4.93,11.02-11.02v-56.48l91.65-91.66L300.35,135.83z"/>
			</g>
			<g id="XMLID_9_">
				<path class="st2" d="M238.95,158.32c18.48-10.33,45.08,7.92,45.08,7.92l32.85,28.81c13.29,11.66,33.34,11,45.84-1.5l0,0
					l-62.4-58.35c-11.02-10.31-28.23-10.02-38.9,0.65L238.95,158.32z"/>
			</g>
		</g>
	</g>
	<g>
		<path class="st2" d="M259.39,280.62h-9.99v-55.97h9.99v17.68c1.2-0.92,2.43-1.58,3.7-1.96c1.27-0.39,2.56-0.58,3.88-0.58
			c2.42,0,4.68,0.47,6.81,1.4s3.97,2.22,5.54,3.85s2.82,3.54,3.73,5.72c0.92,2.18,1.37,4.51,1.37,6.97v22.88h-10.06v-22.88h0.07
			c0-1.05-0.2-2.04-0.59-2.97c-0.39-0.93-0.93-1.75-1.61-2.45c-0.68-0.7-1.48-1.25-2.38-1.64c-0.9-0.4-1.87-0.6-2.89-0.6
			c-1.05,0-2.04,0.2-2.96,0.6s-1.73,0.95-2.42,1.64c-0.68,0.7-1.22,1.51-1.61,2.45c-0.39,0.93-0.59,1.92-0.59,2.97V280.62z"/>
		<path class="st2" d="M329.4,260.25c0,2.99-0.52,5.78-1.57,8.36c-1.05,2.58-2.48,4.81-4.28,6.69c-1.81,1.88-3.92,3.37-6.35,4.45
			c-2.43,1.08-5.03,1.63-7.81,1.63c-2.76,0-5.35-0.54-7.78-1.63c-2.43-1.08-4.55-2.57-6.37-4.45c-1.82-1.88-3.25-4.11-4.3-6.69
			c-1.05-2.58-1.57-5.37-1.57-8.36c0-3.04,0.52-5.86,1.57-8.45c1.05-2.59,2.48-4.83,4.3-6.71c1.82-1.88,3.94-3.36,6.37-4.43
			c2.43-1.07,5.02-1.61,7.78-1.61c2.78,0,5.39,0.5,7.81,1.51c2.43,1.01,4.54,2.44,6.35,4.3c1.81,1.86,3.23,4.09,4.28,6.69
			C328.87,254.16,329.4,257.06,329.4,260.25z M319.33,260.25c0-1.65-0.26-3.13-0.79-4.47c-0.52-1.33-1.24-2.48-2.14-3.44
			c-0.9-0.96-1.96-1.69-3.17-2.21c-1.21-0.51-2.5-0.77-3.86-0.77c-1.37,0-2.65,0.26-3.86,0.77c-1.21,0.51-2.26,1.25-3.15,2.21
			c-0.89,0.96-1.59,2.11-2.1,3.44c-0.51,1.33-0.77,2.82-0.77,4.47c0,1.54,0.26,2.98,0.77,4.3c0.51,1.32,1.21,2.47,2.1,3.44
			c0.89,0.97,1.94,1.74,3.15,2.3s2.49,0.84,3.86,0.84c1.37,0,2.65-0.26,3.86-0.79c1.21-0.52,2.26-1.26,3.17-2.21
			c0.9-0.95,1.62-2.09,2.14-3.44C319.07,263.35,319.33,261.87,319.33,260.25z"/>
		<path class="st2" d="M363.72,275.95c-0.81,0.75-1.67,1.45-2.58,2.11c-0.91,0.66-1.87,1.23-2.87,1.72c-1,0.49-2.03,0.87-3.09,1.16
			c-1.06,0.29-2.14,0.43-3.24,0.43c-2.42,0-4.68-0.44-6.81-1.31s-3.98-2.11-5.58-3.72c-1.6-1.61-2.85-3.56-3.77-5.87
			c-0.92-2.31-1.37-4.89-1.37-7.76v-22.13h9.95v22.13c0,1.35,0.2,2.55,0.6,3.61c0.4,1.06,0.94,1.95,1.63,2.67
			c0.68,0.72,1.48,1.27,2.4,1.65c0.91,0.37,1.9,0.56,2.95,0.56c1.02,0,1.99-0.24,2.91-0.73c0.92-0.49,1.71-1.13,2.4-1.93
			s1.22-1.7,1.61-2.71c0.39-1.01,0.59-2.05,0.59-3.12v-22.13h9.99v40.04h-2.42L363.72,275.95z"/>
		<path class="st2" d="M398.56,280.62h-22.84v-10.17h22.84c0.68,0,1.27-0.25,1.76-0.75c0.49-0.5,0.73-1.1,0.73-1.79
			c0-0.72-0.24-1.2-0.73-1.42c-0.49-0.22-1.07-0.34-1.76-0.34h-10.39c-1.73,0-3.35-0.34-4.87-1.01s-2.83-1.59-3.95-2.75
			c-1.12-1.16-2.01-2.51-2.65-4.06c-0.65-1.54-0.97-3.2-0.97-4.97c0-1.77,0.32-3.43,0.97-4.97c0.65-1.54,1.53-2.89,2.65-4.04
			c1.12-1.15,2.44-2.05,3.95-2.71s3.13-0.99,4.87-0.99h20.24v10.17h-20.24c-0.68,0-1.27,0.25-1.76,0.75
			c-0.49,0.5-0.73,1.1-0.73,1.79c0,0.72,0.24,1.34,0.73,1.85c0.49,0.51,1.07,0.77,1.76,0.77h10.39c1.71,0,3.32,0.29,4.83,0.88
			c1.51,0.59,2.83,1.4,3.95,2.45c1.12,1.05,2.01,2.31,2.67,3.78c0.66,1.47,0.99,3.08,0.99,4.82c0,1.77-0.33,3.42-0.99,4.95
			s-1.55,2.88-2.67,4.04c-1.12,1.16-2.44,2.07-3.95,2.73C401.88,280.29,400.27,280.62,398.56,280.62z"/>
		<path class="st2" d="M425.05,267.86c0.21,0.35,0.45,0.67,0.72,0.95s0.55,0.56,0.85,0.81c0.73,0.64,1.53,1.16,2.39,1.54
			c0.86,0.39,1.76,0.65,2.69,0.78c0.93,0.14,1.88,0.13,2.83-0.01c0.95-0.14,1.87-0.43,2.75-0.85l0.57,10.47
			c-1.58,0.4-3.18,0.61-4.8,0.63c-1.61,0.01-3.2-0.16-4.74-0.52c-1.55-0.36-3.03-0.9-4.45-1.63c-1.42-0.73-2.75-1.63-3.98-2.7
			c-2.08-1.81-3.69-3.91-4.83-6.3c-1.14-2.39-1.78-4.88-1.92-7.48c-0.14-2.6,0.24-5.22,1.15-7.86c0.91-2.63,2.37-5.11,4.41-7.44
			c2.08-2.39,4.38-4.22,6.89-5.5c2.51-1.28,5.06-2.02,7.64-2.21c2.58-0.19,5.12,0.12,7.62,0.95c2.5,0.83,4.79,2.15,6.87,3.96
			c1.23,1.07,2.3,2.28,3.22,3.6c0.91,1.33,1.65,2.73,2.22,4.22c0.56,1.49,0.95,3.04,1.16,4.66c0.21,1.62,0.22,3.24,0.03,4.86
			L425.05,267.86z M442.75,255.37c-0.23-0.44-0.51-0.82-0.81-1.16c-0.31-0.33-0.65-0.66-1.01-0.98c-1.03-0.9-2.17-1.55-3.41-1.96
			c-1.25-0.41-2.52-0.55-3.81-0.42c-1.29,0.13-2.57,0.53-3.83,1.19c-1.26,0.67-2.44,1.63-3.54,2.89c-0.25,0.28-0.51,0.61-0.79,0.99
			c-0.28,0.38-0.55,0.78-0.81,1.2c-0.26,0.42-0.48,0.84-0.69,1.26c-0.2,0.42-0.35,0.82-0.43,1.21L442.75,255.37z"/>
		<path class="st2" d="M470.44,229.7c0,0.95-0.18,1.83-0.53,2.65c-0.35,0.82-0.84,1.54-1.45,2.15c-0.61,0.61-1.32,1.1-2.14,1.46
			c-0.82,0.36-1.69,0.54-2.62,0.54c-0.93,0-1.8-0.18-2.62-0.54c-0.82-0.36-1.52-0.85-2.12-1.46c-0.6-0.61-1.07-1.33-1.43-2.15
			c-0.35-0.82-0.53-1.71-0.53-2.65c0-0.92,0.18-1.8,0.53-2.64c0.35-0.83,0.83-1.56,1.43-2.17c0.6-0.61,1.3-1.1,2.12-1.46
			c0.82-0.36,1.69-0.54,2.62-0.54c0.93,0,1.8,0.18,2.62,0.54c0.82,0.36,1.53,0.85,2.14,1.46s1.09,1.33,1.45,2.17
			C470.26,227.9,470.44,228.78,470.44,229.7z M468.72,280.62h-10.06v-40.04h10.06V280.62z"/>
		<path class="st2" d="M489.03,280.62h-9.99v-29.87h-4.87v-10.17h4.87v-1.91c0-2.47,0.46-4.79,1.37-6.95
			c0.92-2.17,2.17-4.06,3.77-5.66c1.6-1.61,3.46-2.88,5.58-3.81s4.39-1.4,6.81-1.4h7.5v10.17h-7.5c-1.07,0-2.07,0.19-2.98,0.58
			s-1.71,0.92-2.38,1.61c-0.67,0.69-1.2,1.5-1.59,2.43s-0.59,1.95-0.59,3.05v1.91h12.26v10.17h-12.26V280.62z"/>
		<path class="st2" d="M515.16,295.88v-10.28l5.56,0.08c0.98,0,1.92-0.16,2.82-0.49c0.9-0.32,1.74-0.77,2.51-1.35
			c0.77-0.57,1.45-1.25,2.03-2.04s1.06-1.64,1.43-2.56c-1.1,0.47-2.21,0.95-3.35,1.42c-1.13,0.47-2.28,0.71-3.42,0.71
			c-2.42,0-4.68-0.44-6.81-1.31s-3.98-2.11-5.58-3.72c-1.6-1.61-2.85-3.56-3.77-5.87c-0.92-2.31-1.37-4.89-1.37-7.76v-22.13h9.95
			v22.13c0,1.42,0.2,2.66,0.6,3.72c0.4,1.06,0.94,1.94,1.63,2.65c0.68,0.71,1.48,1.24,2.4,1.59c0.91,0.35,1.9,0.52,2.95,0.52
			c1.02,0,1.99-0.24,2.91-0.73c0.92-0.49,1.71-1.13,2.4-1.93s1.22-1.7,1.61-2.71c0.39-1.01,0.59-2.05,0.59-3.12v-22.13h10.06v35
			c-0.02,2.82-0.56,5.46-1.61,7.93c-1.05,2.47-2.48,4.62-4.3,6.47c-1.82,1.84-3.93,3.3-6.35,4.38c-2.42,1.07-5,1.61-7.76,1.61
			L515.16,295.88z"/>
	</g>
	<path id="XMLID_14_" class="st2" d="M361.12,139.35c-7.14,0-11,8.34-6.39,13.8c2.92,3.45,7.55,6.52,14.92,7.69
		c13.59,2.17,21.87,18.69,25.96,29.77c0.63,1.7,3.13,1.24,3.13-0.57v-42.33c0-4.62-3.75-8.37-8.37-8.37L361.12,139.35L361.12,139.35
		z"/>
</g>
</svg>
