<?xml version="1.0" encoding="utf-8"?>
<!-- Generator: Adobe Illustrator 24.3.0, SVG Export Plug-In . SVG Version: 6.00 Build 0)  -->
<svg version="1.1" id="Capa_1" xmlns="http://www.w3.org/2000/svg" xmlns:xlink="http://www.w3.org/1999/xlink" x="0px" y="0px"
	 viewBox="0 0 1884.42 1351.33" style="enable-background:new 0 0 1884.42 1351.33;" xml:space="preserve">
<style type="text/css">
	.st0{fill:#FCFCFC;}
	.st1{fill:#C9C7C7;}
	.st2{fill:#AAE5E8;}
	.st3{fill:#7BE4F2;}
	.st4{fill:#32A5A2;}
	.st5{fill:#F7FBFC;}
	.st6{fill:#777B7C;}
	.st7{fill:#EFF4F3;}
	.st8{fill:#6FA39F;}
	.st9{fill:#92D6CC;}
	.st10{fill:#E4EEF2;}
</style>
<g>
	<g>
		<g>
			<g id="XMLID_76_">
				<path class="st0" d="M843.49,124.74c-11.67-11.27-30.22-11.12-41.69,0.36l-84.57,84.57v80.66c0,6.46,5.24,11.7,11.7,11.7h13.97
					c6.46,0,11.7-5.24,11.7-11.7v-60.01l97.37-97.38L843.49,124.74z"/>
			</g>
			<g id="XMLID_75_">
				<path class="st1" d="M778.26,148.63c19.63-10.98,47.9,8.41,47.9,8.41l34.9,30.61c14.12,12.39,35.42,11.69,48.71-1.59l0,0
					l-66.3-62c-11.71-10.95-29.99-10.65-41.33,0.69L778.26,148.63z"/>
			</g>
		</g>
	</g>
	<path id="XMLID_1_" class="st0" d="M894.37,128.72c-7.52,0-11.58,8.79-6.73,14.54c3.07,3.64,7.96,6.86,15.72,8.1
		c14.31,2.28,23.04,19.68,27.34,31.36c0.66,1.79,3.29,1.31,3.29-0.6v-44.58c0-4.87-3.95-8.82-8.81-8.82H894.37z"/>
	<g>
		<g>
			<path class="st0" d="M792.92,288.02h-10.61v-59.46h10.61v18.79c1.27-0.98,2.58-1.67,3.93-2.09c1.35-0.41,2.72-0.62,4.12-0.62
				c2.57,0,4.98,0.5,7.23,1.49c2.25,0.99,4.22,2.36,5.89,4.09c1.67,1.73,2.99,3.76,3.97,6.08c0.97,2.32,1.46,4.79,1.46,7.41v24.31
				h-10.69v-24.31h0.08c0-1.11-0.21-2.16-0.62-3.16c-0.41-0.99-0.99-1.86-1.71-2.6c-0.73-0.74-1.57-1.32-2.53-1.75
				c-0.96-0.42-1.98-0.64-3.07-0.64c-1.12,0-2.17,0.21-3.15,0.64c-0.99,0.42-1.84,1.01-2.57,1.75c-0.73,0.74-1.3,1.61-1.71,2.6
				c-0.42,0.99-0.62,2.05-0.62,3.16V288.02z"/>
			<path class="st0" d="M867.29,266.38c0,3.18-0.56,6.14-1.67,8.88s-2.63,5.11-4.55,7.11c-1.92,2-4.17,3.57-6.75,4.73
				s-5.35,1.73-8.3,1.73c-2.93,0-5.68-0.58-8.26-1.73s-4.83-2.73-6.76-4.73c-1.93-2-3.45-4.37-4.57-7.11s-1.67-5.7-1.67-8.88
				c0-3.23,0.56-6.22,1.67-8.98c1.11-2.75,2.64-5.13,4.57-7.13c1.93-2,4.19-3.57,6.76-4.71c2.58-1.14,5.33-1.71,8.26-1.71
				c2.96,0,5.72,0.54,8.3,1.61c2.58,1.07,4.83,2.6,6.75,4.57s3.43,4.34,4.55,7.11C866.74,259.91,867.29,262.99,867.29,266.38z
				 M856.6,266.38c0-1.75-0.28-3.33-0.84-4.75c-0.56-1.42-1.32-2.63-2.27-3.65s-2.08-1.8-3.36-2.34c-1.28-0.54-2.65-0.81-4.1-0.81
				s-2.82,0.27-4.1,0.81c-1.28,0.54-2.4,1.32-3.34,2.34s-1.69,2.24-2.24,3.65c-0.54,1.42-0.82,3-0.82,4.75
				c0,1.64,0.27,3.16,0.82,4.57c0.54,1.4,1.29,2.62,2.24,3.65s2.06,1.85,3.34,2.44s2.65,0.89,4.1,0.89s2.82-0.28,4.1-0.83
				c1.28-0.56,2.4-1.34,3.36-2.34c0.96-1.01,1.72-2.22,2.27-3.65C856.32,269.67,856.6,268.1,856.6,266.38z"/>
			<path class="st0" d="M903.76,283.06c-0.86,0.79-1.77,1.54-2.74,2.24s-1.99,1.31-3.05,1.83c-1.06,0.52-2.16,0.93-3.29,1.23
				c-1.13,0.3-2.27,0.46-3.44,0.46c-2.57,0-4.98-0.46-7.23-1.39c-2.25-0.93-4.23-2.24-5.93-3.95c-1.7-1.71-3.03-3.79-4-6.24
				c-0.97-2.45-1.46-5.2-1.46-8.24v-23.52h10.58V269c0,1.43,0.21,2.71,0.64,3.83c0.43,1.13,1,2.07,1.73,2.84
				c0.73,0.77,1.58,1.35,2.55,1.75c0.97,0.4,2.01,0.6,3.13,0.6c1.09,0,2.12-0.26,3.09-0.77c0.97-0.52,1.82-1.2,2.55-2.05
				c0.73-0.85,1.3-1.81,1.71-2.88c0.41-1.07,0.62-2.18,0.62-3.32v-23.52h10.61v42.54h-2.57L903.76,283.06z"/>
			<path class="st0" d="M940.77,288.02h-24.26v-10.8h24.26c0.73,0,1.35-0.26,1.87-0.79c0.52-0.53,0.78-1.17,0.78-1.91
				c0-0.77-0.26-1.27-0.78-1.51s-1.14-0.36-1.87-0.36h-11.04c-1.84,0-3.56-0.36-5.17-1.07c-1.61-0.72-3.01-1.69-4.2-2.92
				c-1.19-1.23-2.13-2.67-2.82-4.31c-0.69-1.64-1.03-3.4-1.03-5.28c0-1.88,0.34-3.64,1.03-5.28c0.69-1.64,1.63-3.07,2.82-4.29
				c1.19-1.22,2.59-2.18,4.2-2.88c1.61-0.7,3.33-1.05,5.17-1.05h21.5v10.8h-21.5c-0.73,0-1.35,0.27-1.87,0.79
				c-0.52,0.53-0.78,1.17-0.78,1.91c0,0.77,0.26,1.42,0.78,1.97c0.52,0.54,1.14,0.81,1.87,0.81h11.04c1.81,0,3.53,0.31,5.13,0.93
				c1.61,0.62,3.01,1.49,4.2,2.6s2.14,2.45,2.84,4.01c0.7,1.56,1.05,3.27,1.05,5.12c0,1.88-0.35,3.63-1.05,5.26
				c-0.7,1.63-1.65,3.06-2.84,4.29s-2.59,2.2-4.2,2.9C944.3,287.67,942.59,288.02,940.77,288.02z"/>
			<path class="st0" d="M976.19,277.62c0.41,0.13,0.83,0.22,1.24,0.26c0.41,0.04,0.83,0.06,1.24,0.06c1.04,0,2.03-0.15,2.99-0.44
				s1.86-0.71,2.7-1.25c0.84-0.54,1.59-1.2,2.25-1.99c0.66-0.78,1.2-1.65,1.61-2.6l7.78,7.98c-0.99,1.43-2.12,2.71-3.4,3.85
				c-1.28,1.14-2.67,2.11-4.16,2.9s-3.06,1.4-4.7,1.81s-3.34,0.62-5.07,0.62c-2.93,0-5.68-0.56-8.26-1.67
				c-2.58-1.11-4.83-2.66-6.76-4.65c-1.93-1.99-3.45-4.35-4.57-7.09s-1.67-5.75-1.67-9.04c0-3.36,0.56-6.44,1.67-9.22
				c1.11-2.78,2.64-5.15,4.57-7.11c1.93-1.96,4.19-3.48,6.76-4.57c2.58-1.09,5.33-1.63,8.26-1.63c1.74,0,3.43,0.21,5.09,0.64
				c1.66,0.42,3.23,1.03,4.72,1.83s2.88,1.77,4.18,2.92s2.44,2.44,3.42,3.87L976.19,277.62z M981.64,255.25
				c-0.49-0.19-0.98-0.3-1.46-0.36c-0.48-0.05-0.98-0.08-1.5-0.08c-1.45,0-2.82,0.27-4.1,0.81c-1.28,0.54-2.4,1.32-3.34,2.32
				c-0.95,1.01-1.69,2.22-2.24,3.63c-0.54,1.42-0.82,3.01-0.82,4.79c0,0.4,0.02,0.85,0.06,1.35c0.04,0.5,0.1,1.01,0.19,1.53
				c0.09,0.52,0.2,1.01,0.33,1.49s0.3,0.9,0.51,1.27L981.64,255.25z"/>
			<path class="st0" d="M1013.94,233.92c0,1.01-0.19,1.95-0.56,2.82c-0.38,0.87-0.89,1.64-1.54,2.28c-0.65,0.65-1.41,1.17-2.27,1.55
				c-0.87,0.38-1.79,0.58-2.78,0.58s-1.91-0.19-2.78-0.58c-0.87-0.38-1.62-0.9-2.25-1.55c-0.64-0.65-1.14-1.41-1.52-2.28
				c-0.38-0.87-0.56-1.81-0.56-2.82c0-0.98,0.19-1.91,0.56-2.8s0.88-1.65,1.52-2.3c0.63-0.65,1.39-1.16,2.25-1.55
				c0.87-0.38,1.79-0.58,2.78-0.58s1.91,0.19,2.78,0.58c0.87,0.38,1.63,0.9,2.27,1.55c0.65,0.65,1.16,1.42,1.54,2.3
				S1013.94,232.95,1013.94,233.92z M1012.12,288.02h-10.69v-42.54h10.69V288.02z"/>
			<path class="st0" d="M1033.69,288.02h-10.61v-31.74h-5.17v-10.8h5.17v-2.03c0-2.62,0.49-5.08,1.46-7.39
				c0.97-2.3,2.31-4.31,4-6.02c1.7-1.71,3.67-3.06,5.93-4.05c2.25-0.99,4.67-1.49,7.23-1.49h7.97v10.8h-7.97
				c-1.14,0-2.2,0.21-3.17,0.62c-0.97,0.41-1.81,0.98-2.53,1.71c-0.71,0.73-1.28,1.59-1.69,2.58c-0.42,0.99-0.62,2.07-0.62,3.24
				v2.03h13.02v10.8h-13.02V288.02z"/>
			<path class="st0" d="M1061.45,304.23v-10.92l5.91,0.08c1.04,0,2.03-0.17,2.99-0.52c0.96-0.34,1.85-0.82,2.66-1.43
				c0.82-0.61,1.54-1.33,2.16-2.17c0.62-0.83,1.13-1.74,1.52-2.72c-1.17,0.5-2.35,1.01-3.56,1.51c-1.21,0.5-2.42,0.75-3.63,0.75
				c-2.57,0-4.98-0.46-7.23-1.39c-2.25-0.93-4.23-2.24-5.93-3.95c-1.7-1.71-3.03-3.79-4-6.24c-0.97-2.45-1.46-5.2-1.46-8.24v-23.52
				h10.58V269c0,1.51,0.21,2.83,0.64,3.95c0.43,1.13,1,2.07,1.73,2.82c0.73,0.75,1.58,1.32,2.55,1.69c0.97,0.37,2.01,0.56,3.13,0.56
				c1.09,0,2.12-0.26,3.09-0.77c0.97-0.52,1.82-1.2,2.55-2.05c0.73-0.85,1.3-1.81,1.71-2.88c0.41-1.07,0.62-2.18,0.62-3.32v-23.52
				h10.69v37.18c-0.03,2.99-0.6,5.8-1.71,8.42s-2.64,4.91-4.57,6.87c-1.93,1.96-4.18,3.51-6.75,4.65c-2.57,1.14-5.31,1.71-8.24,1.71
				L1061.45,304.23z"/>
		</g>
	</g>
</g>
<g>
	<g>
		<rect x="440.37" y="235.13" class="st2" width="1" height="2.99"/>
		<g id="XMLID_77_">
			<path class="st3" d="M262.69,142.41c-11.68-11.28-30.25-11.13-41.73,0.36l-84.65,84.65v80.73c0,6.47,5.24,11.71,11.71,11.71
				h13.98c6.47,0,11.71-5.24,11.71-11.71v-60.06l97.46-97.46L262.69,142.41z"/>
		</g>
		<g id="XMLID_74_">
			<path class="st4" d="M197.41,166.32c19.65-10.99,47.94,8.42,47.94,8.42l34.93,30.63c14.13,12.4,35.46,11.7,48.75-1.59l0,0
				l-66.35-62.05c-11.72-10.96-30.02-10.65-41.37,0.69L197.41,166.32z"/>
		</g>
		<g id="XMLID_73_">
			<path class="st3" d="M313.62,146.39c-7.53,0-11.59,8.8-6.74,14.55c3.07,3.64,7.96,6.87,15.72,8.11
				c14.32,2.28,23.06,19.7,27.37,31.38c0.66,1.79,3.3,1.31,3.3-0.6v-44.62c0-4.88-3.95-8.83-8.82-8.83H313.62z"/>
		</g>
		<g>
			<path class="st3" d="M212.08,305.84h-10.62v-59.52h10.62v18.8c1.27-0.98,2.58-1.68,3.93-2.09c1.35-0.41,2.72-0.62,4.12-0.62
				c2.57,0,4.98,0.5,7.24,1.49c2.26,0.99,4.22,2.36,5.9,4.09c1.67,1.74,3,3.76,3.97,6.08c0.97,2.32,1.46,4.79,1.46,7.41v24.33h-10.7
				v-24.33h0.08c0-1.11-0.21-2.17-0.62-3.16c-0.42-0.99-0.99-1.86-1.71-2.6c-0.73-0.74-1.57-1.33-2.53-1.75
				c-0.96-0.42-1.98-0.64-3.07-0.64c-1.12,0-2.17,0.21-3.15,0.64c-0.99,0.42-1.84,1.01-2.57,1.75c-0.73,0.74-1.3,1.61-1.71,2.6
				c-0.42,0.99-0.62,2.05-0.62,3.16V305.84z"/>
			<path class="st3" d="M286.52,284.17c0,3.18-0.56,6.14-1.67,8.89c-1.12,2.74-2.63,5.12-4.55,7.12c-1.92,2-4.17,3.58-6.75,4.73
				c-2.58,1.15-5.35,1.73-8.31,1.73c-2.93,0-5.69-0.58-8.27-1.73c-2.58-1.15-4.84-2.73-6.77-4.73c-1.93-2-3.46-4.37-4.57-7.12
				c-1.12-2.74-1.67-5.71-1.67-8.89c0-3.23,0.56-6.23,1.67-8.98c1.12-2.76,2.64-5.13,4.57-7.14c1.93-2,4.19-3.57,6.77-4.71
				c2.58-1.14,5.34-1.71,8.27-1.71c2.96,0,5.73,0.54,8.31,1.61c2.58,1.07,4.83,2.6,6.75,4.57c1.92,1.98,3.44,4.35,4.55,7.12
				C285.96,277.7,286.52,280.78,286.52,284.17z M275.82,284.17c0-1.75-0.28-3.33-0.84-4.75c-0.56-1.42-1.32-2.64-2.28-3.66
				c-0.96-1.02-2.08-1.8-3.37-2.35c-1.28-0.54-2.65-0.82-4.11-0.82c-1.45,0-2.82,0.27-4.1,0.82c-1.28,0.54-2.4,1.33-3.35,2.35
				c-0.95,1.02-1.69,2.24-2.24,3.66c-0.54,1.42-0.82,3-0.82,4.75c0,1.64,0.27,3.17,0.82,4.57c0.54,1.41,1.29,2.62,2.24,3.66
				c0.95,1.03,2.06,1.85,3.35,2.44c1.28,0.6,2.65,0.89,4.1,0.89c1.45,0,2.82-0.28,4.11-0.83s2.41-1.34,3.37-2.35
				c0.96-1.01,1.72-2.23,2.28-3.66C275.54,287.47,275.82,285.89,275.82,284.17z"/>
			<path class="st3" d="M323.02,300.87c-0.86,0.8-1.77,1.54-2.74,2.25c-0.97,0.7-1.99,1.31-3.05,1.83
				c-1.06,0.52-2.16,0.93-3.29,1.23c-1.13,0.3-2.28,0.46-3.44,0.46c-2.57,0-4.98-0.46-7.24-1.39c-2.26-0.93-4.24-2.25-5.93-3.96
				c-1.7-1.71-3.04-3.79-4.01-6.24c-0.97-2.45-1.46-5.2-1.46-8.25v-23.54h10.58v23.54c0,1.43,0.21,2.71,0.64,3.84
				c0.43,1.13,1,2.07,1.73,2.84c0.73,0.77,1.58,1.35,2.55,1.75c0.97,0.4,2.02,0.6,3.13,0.6c1.09,0,2.12-0.26,3.09-0.78
				c0.97-0.52,1.82-1.2,2.55-2.05c0.73-0.85,1.3-1.81,1.71-2.88c0.41-1.07,0.62-2.18,0.62-3.32v-23.54h10.62v42.58h-2.57
				L323.02,300.87z"/>
			<path class="st3" d="M360.06,305.84h-24.28v-10.81h24.28c0.73,0,1.35-0.26,1.87-0.8c0.52-0.53,0.78-1.17,0.78-1.91
				c0-0.77-0.26-1.27-0.78-1.51c-0.52-0.24-1.14-0.36-1.87-0.36h-11.05c-1.84,0-3.57-0.36-5.18-1.07c-1.61-0.72-3.01-1.69-4.2-2.92
				c-1.19-1.23-2.13-2.67-2.82-4.31c-0.69-1.64-1.03-3.41-1.03-5.29c0-1.88,0.34-3.64,1.03-5.29c0.69-1.64,1.63-3.07,2.82-4.29
				c1.19-1.22,2.59-2.18,4.2-2.88c1.61-0.7,3.33-1.05,5.18-1.05h21.52v10.81h-21.52c-0.73,0-1.35,0.27-1.87,0.79
				c-0.52,0.53-0.78,1.17-0.78,1.91c0,0.77,0.26,1.43,0.78,1.97c0.52,0.54,1.14,0.81,1.87,0.81h11.05c1.82,0,3.53,0.31,5.14,0.93
				c1.61,0.62,3.01,1.49,4.2,2.6c1.19,1.11,2.14,2.45,2.84,4.02c0.7,1.56,1.05,3.27,1.05,5.13c0,1.88-0.35,3.64-1.05,5.27
				c-0.7,1.63-1.65,3.06-2.84,4.29c-1.19,1.23-2.59,2.2-4.2,2.9C363.59,305.48,361.88,305.84,360.06,305.84z"/>
			<path class="st3" d="M395.51,295.42c0.41,0.13,0.83,0.22,1.25,0.26s0.83,0.06,1.25,0.06c1.04,0,2.04-0.15,3-0.44
				c0.96-0.29,1.86-0.71,2.7-1.25c0.84-0.54,1.6-1.21,2.26-1.99s1.2-1.65,1.61-2.6l7.78,7.99c-0.99,1.43-2.12,2.72-3.41,3.86
				c-1.28,1.14-2.67,2.11-4.16,2.9c-1.49,0.79-3.06,1.4-4.71,1.81s-3.34,0.62-5.08,0.62c-2.93,0-5.69-0.56-8.27-1.67
				c-2.58-1.11-4.84-2.66-6.77-4.65s-3.46-4.35-4.57-7.1c-1.12-2.74-1.67-5.76-1.67-9.04c0-3.37,0.56-6.44,1.67-9.22
				c1.12-2.78,2.64-5.15,4.57-7.12c1.93-1.96,4.19-3.48,6.77-4.57c2.58-1.09,5.34-1.63,8.27-1.63c1.74,0,3.44,0.21,5.1,0.64
				c1.66,0.42,3.24,1.03,4.73,1.83c1.49,0.8,2.89,1.77,4.18,2.92c1.3,1.15,2.44,2.44,3.42,3.88L395.51,295.42z M400.96,273.04
				c-0.49-0.19-0.98-0.3-1.46-0.36c-0.48-0.05-0.98-0.08-1.5-0.08c-1.45,0-2.82,0.27-4.11,0.82c-1.28,0.54-2.4,1.32-3.35,2.33
				c-0.95,1.01-1.69,2.22-2.24,3.64s-0.82,3.02-0.82,4.79c0,0.4,0.02,0.85,0.06,1.35c0.04,0.5,0.1,1.01,0.19,1.53
				c0.09,0.52,0.2,1.01,0.33,1.49c0.13,0.48,0.3,0.9,0.51,1.27L400.96,273.04z"/>
			<path class="st3" d="M433.29,251.69c0,1.01-0.19,1.95-0.56,2.82c-0.38,0.87-0.89,1.64-1.54,2.29c-0.65,0.65-1.41,1.17-2.28,1.55
				c-0.87,0.38-1.8,0.58-2.78,0.58c-0.99,0-1.91-0.19-2.78-0.58c-0.87-0.38-1.62-0.9-2.26-1.55s-1.14-1.41-1.52-2.29
				s-0.56-1.81-0.56-2.82c0-0.98,0.19-1.91,0.56-2.8c0.38-0.89,0.88-1.66,1.52-2.31s1.39-1.17,2.26-1.55
				c0.87-0.38,1.8-0.58,2.78-0.58c0.99,0,1.91,0.19,2.78,0.58c0.87,0.38,1.63,0.9,2.28,1.55c0.65,0.65,1.16,1.42,1.54,2.31
				C433.11,249.77,433.29,250.71,433.29,251.69z M431.47,305.84h-10.7v-42.58h10.7V305.84z"/>
			<path class="st3" d="M453.06,305.84h-10.62v-31.77h-5.18v-10.81h5.18v-2.03c0-2.62,0.49-5.09,1.46-7.39
				c0.97-2.31,2.31-4.31,4.01-6.02c1.7-1.71,3.68-3.06,5.93-4.06c2.26-0.99,4.67-1.49,7.24-1.49h7.98v10.81h-7.98
				c-1.14,0-2.2,0.21-3.17,0.62c-0.97,0.41-1.82,0.98-2.53,1.71c-0.71,0.73-1.28,1.59-1.69,2.58c-0.42,0.99-0.62,2.07-0.62,3.24
				v2.03h13.04v10.81h-13.04V305.84z"/>
			<path class="st3" d="M480.85,322.06v-10.93l5.91,0.08c1.04,0,2.04-0.17,3-0.52c0.96-0.34,1.85-0.82,2.67-1.43
				c0.82-0.61,1.54-1.33,2.16-2.17s1.13-1.74,1.52-2.72c-1.17,0.5-2.35,1.01-3.56,1.51c-1.21,0.5-2.42,0.76-3.64,0.76
				c-2.57,0-4.98-0.46-7.24-1.39c-2.26-0.93-4.24-2.25-5.93-3.96c-1.7-1.71-3.04-3.79-4.01-6.24c-0.97-2.45-1.46-5.2-1.46-8.25
				v-23.54h10.58v23.54c0,1.51,0.21,2.83,0.64,3.96c0.43,1.13,1,2.07,1.73,2.82c0.73,0.76,1.58,1.32,2.55,1.69
				c0.97,0.37,2.02,0.56,3.13,0.56c1.09,0,2.12-0.26,3.09-0.78c0.97-0.52,1.82-1.2,2.55-2.05c0.73-0.85,1.3-1.81,1.71-2.88
				c0.41-1.07,0.62-2.18,0.62-3.32v-23.54h10.7v37.21c-0.03,3-0.6,5.8-1.71,8.43c-1.12,2.62-2.64,4.92-4.57,6.88
				c-1.93,1.96-4.18,3.51-6.75,4.65c-2.57,1.14-5.32,1.71-8.25,1.71L480.85,322.06z"/>
		</g>
	</g>
</g>
<g>
	<g>
		<path class="st5" d="M789.52,563.66h-10.05v-55.12h10.05v17.42c1.2-0.91,2.44-1.55,3.72-1.93c1.28-0.38,2.58-0.57,3.9-0.57
			c2.43,0,4.71,0.46,6.85,1.38c2.14,0.92,4,2.19,5.58,3.79c1.58,1.61,2.83,3.49,3.76,5.63c0.92,2.15,1.38,4.44,1.38,6.87v22.54
			h-10.13v-22.54h0.07c0-1.03-0.2-2.01-0.59-2.93c-0.39-0.92-0.93-1.72-1.62-2.41c-0.69-0.69-1.49-1.23-2.39-1.62
			s-1.88-0.59-2.91-0.59c-1.06,0-2.05,0.2-2.98,0.59c-0.93,0.39-1.74,0.93-2.43,1.62c-0.69,0.69-1.23,1.49-1.62,2.41
			c-0.39,0.92-0.59,1.9-0.59,2.93V563.66z"/>
		<path class="st5" d="M859.96,543.59c0,2.95-0.53,5.69-1.58,8.23c-1.05,2.54-2.49,4.74-4.31,6.59s-3.95,3.31-6.39,4.38
			c-2.44,1.07-5.06,1.6-7.86,1.6c-2.78,0-5.38-0.53-7.82-1.6c-2.44-1.07-4.58-2.53-6.41-4.38s-3.27-4.05-4.33-6.59
			c-1.06-2.54-1.58-5.28-1.58-8.23c0-3,0.53-5.77,1.58-8.32c1.05-2.55,2.5-4.76,4.33-6.61c1.83-1.85,3.96-3.31,6.41-4.36
			c2.44-1.06,5.05-1.58,7.82-1.58c2.8,0,5.42,0.5,7.86,1.49s4.57,2.41,6.39,4.23c1.82,1.83,3.25,4.03,4.31,6.59
			C859.43,537.6,859.96,540.45,859.96,543.59z M849.84,543.59c0-1.62-0.26-3.09-0.79-4.4c-0.53-1.31-1.25-2.44-2.15-3.39
			c-0.91-0.94-1.97-1.67-3.19-2.17c-1.21-0.5-2.51-0.75-3.88-0.75s-2.67,0.25-3.88,0.75c-1.21,0.5-2.27,1.23-3.17,2.17
			c-0.9,0.95-1.6,2.07-2.12,3.39c-0.51,1.31-0.77,2.78-0.77,4.4c0,1.52,0.26,2.93,0.77,4.23c0.52,1.3,1.22,2.43,2.12,3.39
			c0.89,0.96,1.95,1.71,3.17,2.26c1.21,0.55,2.51,0.83,3.88,0.83s2.67-0.26,3.88-0.77s2.28-1.24,3.19-2.17
			c0.91-0.93,1.62-2.06,2.15-3.39C849.57,546.65,849.84,545.19,849.84,543.59z"/>
		<path class="st5" d="M894.5,559.06c-0.81,0.74-1.68,1.43-2.6,2.08c-0.92,0.65-1.88,1.22-2.89,1.69c-1.01,0.48-2.04,0.86-3.11,1.14
			c-1.07,0.28-2.15,0.42-3.26,0.42c-2.43,0-4.71-0.43-6.85-1.29c-2.14-0.86-4.01-2.08-5.62-3.66c-1.61-1.58-2.87-3.51-3.79-5.78
			c-0.92-2.27-1.38-4.82-1.38-7.64v-21.8h10.02v21.8c0,1.33,0.2,2.51,0.61,3.55c0.4,1.04,0.95,1.92,1.64,2.63
			c0.69,0.71,1.49,1.25,2.41,1.62c0.92,0.37,1.91,0.55,2.96,0.55c1.03,0,2.01-0.24,2.93-0.72c0.92-0.48,1.72-1.11,2.41-1.9
			c0.69-0.79,1.23-1.68,1.62-2.67c0.39-0.99,0.59-2.02,0.59-3.07v-21.8h10.05v39.44h-2.43L894.5,559.06z"/>
		<path class="st5" d="M929.56,563.66h-22.98v-10.02h22.98c0.69,0,1.28-0.25,1.77-0.74c0.49-0.49,0.74-1.08,0.74-1.77
			c0-0.71-0.25-1.18-0.74-1.4c-0.49-0.22-1.08-0.33-1.77-0.33H919.1c-1.74,0-3.38-0.33-4.9-0.99c-1.52-0.66-2.85-1.57-3.98-2.71
			s-2.02-2.47-2.67-4c-0.65-1.52-0.98-3.15-0.98-4.9c0-1.74,0.33-3.38,0.98-4.9c0.65-1.52,1.54-2.85,2.67-3.98
			c1.13-1.13,2.45-2.02,3.98-2.67c1.52-0.65,3.15-0.98,4.9-0.98h20.36v10.02H919.1c-0.69,0-1.28,0.25-1.77,0.74
			c-0.49,0.49-0.74,1.08-0.74,1.77c0,0.71,0.25,1.32,0.74,1.82c0.49,0.5,1.08,0.75,1.77,0.75h10.46c1.72,0,3.34,0.29,4.86,0.87
			c1.52,0.58,2.85,1.38,3.98,2.41c1.13,1.03,2.03,2.27,2.69,3.72s0.99,3.03,0.99,4.75c0,1.74-0.33,3.37-0.99,4.88
			s-1.56,2.84-2.69,3.98c-1.13,1.14-2.46,2.04-3.98,2.69C932.9,563.34,931.28,563.66,929.56,563.66z"/>
		<path class="st5" d="M975.07,553.9c1.63-0.63,3.15-1.62,4.56-2.98l6.26,6.79c-3.82,4.37-9.4,6.56-16.74,6.56
			c-4.57,0-8.62-0.89-12.14-2.68c-3.52-1.78-6.23-4.26-8.14-7.43c-1.91-3.17-2.87-6.76-2.87-10.78c0-3.97,0.94-7.55,2.83-10.75
			c1.89-3.19,4.47-5.68,7.77-7.47c3.29-1.78,7-2.68,11.12-2.68c3.87,0,7.39,0.82,10.56,2.45c3.17,1.63,5.69,4,7.58,7.09
			c1.88,3.09,2.83,6.75,2.83,10.97l-30.02,5.81c0.86,2.01,2.2,3.52,4.04,4.53c1.83,1.01,4.08,1.51,6.75,1.51
			C971.57,554.84,973.44,554.53,975.07,553.9z M960.48,534.25c-1.86,1.91-2.84,4.55-2.94,7.92l19.76-3.85
			c-0.55-2.11-1.68-3.8-3.39-5.05c-1.71-1.26-3.77-1.89-6.18-1.89C964.75,531.39,962.34,532.34,960.48,534.25z"/>
		<path class="st5" d="M1006.86,513.51c0,0.93-0.18,1.8-0.53,2.61s-0.84,1.52-1.46,2.12c-0.61,0.6-1.33,1.08-2.15,1.44
			c-0.82,0.36-1.7,0.53-2.63,0.53s-1.81-0.18-2.63-0.53c-0.82-0.36-1.53-0.83-2.13-1.44c-0.6-0.6-1.08-1.31-1.44-2.12
			c-0.36-0.81-0.53-1.68-0.53-2.61c0-0.91,0.18-1.77,0.53-2.6c0.36-0.82,0.84-1.53,1.44-2.14s1.31-1.08,2.13-1.44
			s1.7-0.53,2.63-0.53s1.81,0.18,2.63,0.53s1.54,0.83,2.15,1.44s1.1,1.31,1.46,2.14C1006.68,511.74,1006.86,512.6,1006.86,513.51z
			 M1005.13,563.66H995v-39.44h10.12V563.66z"/>
		<path class="st5" d="M1025.57,563.66h-10.05v-29.42h-4.9v-10.02h4.9v-1.88c0-2.43,0.46-4.71,1.38-6.85c0.92-2.14,2.18-4,3.79-5.58
			c1.61-1.58,3.48-2.84,5.62-3.76c2.13-0.92,4.42-1.38,6.85-1.38h7.55v10.02h-7.55c-1.08,0-2.08,0.19-3,0.57
			c-0.92,0.38-1.72,0.91-2.39,1.58c-0.67,0.68-1.21,1.47-1.6,2.39c-0.39,0.92-0.59,1.92-0.59,3v1.88h12.34v10.02h-12.34V563.66z"/>
		<path class="st5" d="M1051.86,578.69v-10.13l5.6,0.07c0.98,0,1.93-0.16,2.84-0.48s1.75-0.76,2.52-1.33
			c0.77-0.57,1.45-1.23,2.04-2.01s1.07-1.61,1.44-2.52c-1.1,0.47-2.23,0.93-3.37,1.4c-1.14,0.47-2.29,0.7-3.44,0.7
			c-2.43,0-4.71-0.43-6.85-1.29c-2.14-0.86-4.01-2.08-5.62-3.66c-1.61-1.58-2.87-3.51-3.79-5.78c-0.92-2.27-1.38-4.82-1.38-7.64
			v-21.8h10.02v21.8c0,1.4,0.2,2.62,0.61,3.66c0.4,1.04,0.95,1.92,1.64,2.62c0.69,0.7,1.49,1.22,2.41,1.56
			c0.92,0.34,1.91,0.52,2.96,0.52c1.03,0,2.01-0.24,2.93-0.72c0.92-0.48,1.72-1.11,2.41-1.9c0.69-0.79,1.23-1.68,1.62-2.67
			c0.39-0.99,0.59-2.02,0.59-3.07v-21.8h10.13v34.47c-0.03,2.77-0.56,5.38-1.62,7.81c-1.05,2.43-2.5,4.55-4.33,6.37
			c-1.83,1.82-3.96,3.25-6.39,4.31c-2.43,1.05-5.03,1.58-7.81,1.58L1051.86,578.69z"/>
	</g>
	<rect x="1034.53" y="500.08" class="st2" width="1.01" height="3.04"/>
	<path id="XMLID_47_" class="st5" d="M853.45,405.59c-11.9-11.5-30.82-11.34-42.52,0.36l-86.26,86.27v82.28
		c0,6.59,5.34,11.94,11.94,11.94h14.25c6.59,0,11.94-5.34,11.94-11.94v-61.21l99.32-99.32L853.45,405.59z"/>
	<path id="XMLID_45_" class="st6" d="M786.92,429.97c20.02-11.2,48.86,8.58,48.86,8.58l35.6,31.22
		c14.4,12.63,36.13,11.92,49.68-1.62l0,0l-67.62-63.24c-11.94-11.17-30.59-10.86-42.16,0.7L786.92,429.97z"/>
	<path id="XMLID_43_" class="st7" d="M905.36,409.65c-7.67,0-11.81,8.97-6.87,14.83c3.13,3.71,8.11,7,16.02,8.26
		c14.6,2.33,23.5,20.08,27.9,31.98c0.67,1.82,3.36,1.33,3.36-0.61v-45.47c0-4.97-4.03-9-8.99-9H905.36z"/>
</g>
<g>
	<g>
		<rect x="441.34" y="487.13" class="st2" width="1" height="2.99"/>
		<g id="XMLID_80_">
			<path class="st3" d="M263.66,394.41c-11.68-11.28-30.25-11.13-41.73,0.36l-84.65,84.65v80.73c0,6.47,5.24,11.71,11.71,11.71
				h13.98c6.47,0,11.71-5.24,11.71-11.71v-60.06l97.46-97.46L263.66,394.41z"/>
		</g>
		<g id="XMLID_79_">
			<path class="st8" d="M198.37,418.33c19.65-10.99,47.94,8.42,47.94,8.42l34.93,30.63c14.13,12.4,35.46,11.7,48.75-1.59l0,0
				l-66.35-62.05c-11.72-10.96-30.02-10.65-41.37,0.69L198.37,418.33z"/>
		</g>
		<g id="XMLID_78_">
			<path class="st3" d="M314.59,398.4c-7.53,0-11.59,8.8-6.74,14.55c3.07,3.64,7.96,6.87,15.72,8.11
				c14.32,2.28,23.06,19.7,27.37,31.38c0.66,1.79,3.3,1.31,3.3-0.6v-44.62c0-4.88-3.95-8.83-8.82-8.83H314.59z"/>
		</g>
		<g>
			<path class="st3" d="M213.04,557.84h-10.62v-59.51h10.62v18.8c1.27-0.98,2.58-1.68,3.93-2.09c1.35-0.41,2.72-0.62,4.12-0.62
				c2.57,0,4.98,0.5,7.24,1.49c2.26,0.99,4.22,2.36,5.9,4.09c1.67,1.74,3,3.76,3.97,6.08c0.97,2.32,1.46,4.79,1.46,7.41v24.33h-10.7
				v-24.33h0.08c0-1.11-0.21-2.17-0.62-3.16c-0.42-0.99-0.99-1.86-1.71-2.6c-0.73-0.74-1.57-1.33-2.53-1.75
				c-0.96-0.42-1.98-0.64-3.07-0.64c-1.12,0-2.17,0.21-3.15,0.64c-0.99,0.42-1.84,1.01-2.57,1.75c-0.73,0.74-1.3,1.61-1.71,2.6
				c-0.42,0.99-0.62,2.05-0.62,3.16V557.84z"/>
			<path class="st3" d="M287.48,536.18c0,3.18-0.56,6.14-1.67,8.89c-1.12,2.74-2.63,5.12-4.55,7.12c-1.92,2-4.17,3.58-6.75,4.73
				c-2.58,1.15-5.35,1.73-8.31,1.73c-2.93,0-5.69-0.58-8.27-1.73c-2.58-1.15-4.84-2.73-6.77-4.73c-1.93-2-3.46-4.37-4.57-7.12
				c-1.12-2.74-1.67-5.71-1.67-8.89c0-3.23,0.56-6.23,1.67-8.98c1.12-2.76,2.64-5.13,4.57-7.14c1.93-2,4.19-3.57,6.77-4.71
				c2.58-1.14,5.34-1.71,8.27-1.71c2.96,0,5.73,0.54,8.31,1.61c2.58,1.07,4.83,2.6,6.75,4.57c1.92,1.98,3.44,4.35,4.55,7.12
				C286.92,529.7,287.48,532.78,287.48,536.18z M276.78,536.18c0-1.75-0.28-3.33-0.84-4.75c-0.56-1.42-1.32-2.64-2.28-3.66
				c-0.96-1.02-2.08-1.8-3.37-2.35c-1.28-0.54-2.65-0.82-4.11-0.82c-1.45,0-2.82,0.27-4.1,0.82c-1.28,0.54-2.4,1.33-3.35,2.35
				c-0.95,1.02-1.69,2.24-2.24,3.66c-0.54,1.42-0.82,3-0.82,4.75c0,1.64,0.27,3.17,0.82,4.57c0.54,1.41,1.29,2.62,2.24,3.66
				c0.95,1.03,2.06,1.85,3.35,2.45c1.28,0.6,2.65,0.89,4.1,0.89c1.45,0,2.82-0.28,4.11-0.83s2.41-1.34,3.37-2.35
				c0.96-1.01,1.72-2.23,2.28-3.66C276.5,539.48,276.78,537.9,276.78,536.18z"/>
			<path class="st3" d="M323.98,552.87c-0.86,0.8-1.77,1.54-2.74,2.25s-1.99,1.31-3.05,1.83c-1.06,0.52-2.16,0.93-3.29,1.23
				s-2.28,0.46-3.44,0.46c-2.57,0-4.98-0.46-7.24-1.39c-2.26-0.93-4.24-2.25-5.93-3.96c-1.7-1.71-3.04-3.79-4.01-6.24
				c-0.97-2.45-1.46-5.2-1.46-8.25v-23.54h10.58v23.54c0,1.43,0.21,2.71,0.64,3.84c0.43,1.13,1,2.07,1.73,2.84
				c0.73,0.77,1.58,1.35,2.55,1.75c0.97,0.4,2.02,0.6,3.13,0.6c1.09,0,2.12-0.26,3.09-0.78c0.97-0.52,1.82-1.2,2.55-2.05
				c0.73-0.85,1.3-1.81,1.71-2.88c0.41-1.07,0.62-2.18,0.62-3.32v-23.54h10.62v42.58h-2.57L323.98,552.87z"/>
			<path class="st3" d="M361.03,557.84h-24.28v-10.81h24.28c0.73,0,1.35-0.26,1.87-0.79c0.52-0.53,0.78-1.17,0.78-1.91
				c0-0.77-0.26-1.27-0.78-1.51c-0.52-0.24-1.14-0.36-1.87-0.36h-11.05c-1.84,0-3.57-0.36-5.18-1.07c-1.61-0.72-3.01-1.69-4.2-2.92
				c-1.19-1.23-2.13-2.67-2.82-4.31c-0.69-1.64-1.03-3.41-1.03-5.29c0-1.88,0.34-3.64,1.03-5.29c0.69-1.64,1.63-3.07,2.82-4.29
				c1.19-1.22,2.59-2.18,4.2-2.88c1.61-0.7,3.33-1.05,5.18-1.05h21.52v10.81h-21.52c-0.73,0-1.35,0.27-1.87,0.79
				c-0.52,0.53-0.78,1.17-0.78,1.91c0,0.77,0.26,1.43,0.78,1.97c0.52,0.54,1.14,0.81,1.87,0.81h11.05c1.82,0,3.53,0.31,5.14,0.93
				c1.61,0.62,3.01,1.49,4.2,2.6c1.19,1.11,2.14,2.45,2.84,4.02c0.7,1.56,1.05,3.27,1.05,5.13c0,1.88-0.35,3.64-1.05,5.27
				c-0.7,1.63-1.65,3.06-2.84,4.29c-1.19,1.23-2.59,2.2-4.2,2.9C364.56,557.49,362.84,557.84,361.03,557.84z"/>
			<path class="st3" d="M396.48,547.43c0.41,0.13,0.83,0.22,1.25,0.26c0.42,0.04,0.83,0.06,1.25,0.06c1.04,0,2.04-0.15,3-0.44
				c0.96-0.29,1.86-0.71,2.7-1.25c0.84-0.54,1.6-1.21,2.26-1.99c0.66-0.78,1.2-1.65,1.61-2.6l7.78,7.99
				c-0.99,1.43-2.12,2.72-3.41,3.86c-1.28,1.14-2.67,2.11-4.16,2.9s-3.06,1.4-4.71,1.81c-1.65,0.41-3.34,0.62-5.08,0.62
				c-2.93,0-5.69-0.56-8.27-1.67c-2.58-1.11-4.84-2.66-6.77-4.65c-1.93-1.99-3.46-4.35-4.57-7.1c-1.12-2.74-1.67-5.76-1.67-9.04
				c0-3.37,0.56-6.44,1.67-9.22c1.12-2.78,2.64-5.15,4.57-7.12c1.93-1.96,4.19-3.48,6.77-4.57c2.58-1.09,5.34-1.63,8.27-1.63
				c1.74,0,3.44,0.21,5.1,0.64c1.66,0.42,3.24,1.03,4.73,1.83c1.49,0.8,2.89,1.77,4.18,2.92c1.3,1.15,2.44,2.44,3.42,3.88
				L396.48,547.43z M401.92,525.04c-0.49-0.19-0.98-0.3-1.46-0.36c-0.48-0.05-0.98-0.08-1.5-0.08c-1.45,0-2.82,0.27-4.11,0.82
				c-1.28,0.54-2.4,1.32-3.35,2.33c-0.95,1.01-1.69,2.22-2.24,3.64s-0.82,3.02-0.82,4.79c0,0.4,0.02,0.85,0.06,1.35
				c0.04,0.5,0.1,1.01,0.19,1.53c0.09,0.52,0.2,1.01,0.33,1.49c0.13,0.48,0.3,0.9,0.51,1.27L401.92,525.04z"/>
			<path class="st3" d="M434.26,503.69c0,1.01-0.19,1.95-0.56,2.82c-0.38,0.87-0.89,1.64-1.54,2.29c-0.65,0.65-1.41,1.17-2.28,1.55
				c-0.87,0.38-1.8,0.58-2.78,0.58c-0.99,0-1.91-0.19-2.78-0.58c-0.87-0.38-1.62-0.9-2.26-1.55s-1.14-1.41-1.52-2.29
				s-0.56-1.81-0.56-2.82c0-0.98,0.19-1.91,0.56-2.8c0.38-0.89,0.88-1.66,1.52-2.31s1.39-1.17,2.26-1.55
				c0.87-0.38,1.8-0.58,2.78-0.58c0.99,0,1.91,0.19,2.78,0.58c0.87,0.38,1.63,0.9,2.28,1.55c0.65,0.65,1.16,1.42,1.54,2.31
				C434.07,501.78,434.26,502.71,434.26,503.69z M432.43,557.84h-10.7v-42.58h10.7V557.84z"/>
			<path class="st3" d="M454.03,557.84h-10.62v-31.76h-5.18v-10.81h5.18v-2.03c0-2.62,0.49-5.09,1.46-7.39
				c0.97-2.31,2.31-4.31,4.01-6.02c1.7-1.71,3.68-3.06,5.93-4.06c2.26-0.99,4.67-1.49,7.24-1.49h7.98v10.81h-7.98
				c-1.14,0-2.2,0.21-3.17,0.62c-0.97,0.41-1.82,0.98-2.53,1.71c-0.71,0.73-1.28,1.59-1.69,2.58c-0.42,0.99-0.62,2.07-0.62,3.24
				v2.03h13.04v10.81h-13.04V557.84z"/>
			<path class="st3" d="M481.81,574.06v-10.93l5.91,0.08c1.04,0,2.04-0.17,3-0.52c0.96-0.34,1.85-0.82,2.67-1.43
				c0.82-0.61,1.54-1.33,2.16-2.17s1.13-1.74,1.52-2.72c-1.17,0.5-2.35,1.01-3.56,1.51c-1.21,0.5-2.42,0.75-3.64,0.75
				c-2.57,0-4.98-0.46-7.24-1.39c-2.26-0.93-4.24-2.25-5.93-3.96c-1.7-1.71-3.04-3.79-4.01-6.24c-0.97-2.45-1.46-5.2-1.46-8.25
				v-23.54h10.58v23.54c0,1.51,0.21,2.83,0.64,3.96c0.43,1.13,1,2.07,1.73,2.82c0.73,0.76,1.58,1.32,2.55,1.69
				c0.97,0.37,2.02,0.56,3.13,0.56c1.09,0,2.12-0.26,3.09-0.78c0.97-0.52,1.82-1.2,2.55-2.05c0.73-0.85,1.3-1.81,1.71-2.88
				c0.41-1.07,0.62-2.18,0.62-3.32v-23.54h10.7v37.21c-0.03,3-0.6,5.8-1.71,8.43c-1.12,2.62-2.64,4.92-4.57,6.88
				c-1.93,1.96-4.18,3.51-6.75,4.65c-2.57,1.14-5.32,1.71-8.25,1.71L481.81,574.06z"/>
		</g>
	</g>
</g>
<g>
	<g>
		<rect x="441.34" y="753.33" class="st2" width="1" height="2.99"/>
		<g id="XMLID_83_">
			<path class="st3" d="M263.66,660.61c-11.68-11.28-30.25-11.13-41.73,0.36l-84.65,84.65v80.73c0,6.47,5.24,11.71,11.71,11.71
				h13.98c6.47,0,11.71-5.24,11.71-11.71v-60.06l97.46-97.46L263.66,660.61z"/>
		</g>
		<g id="XMLID_82_">
			<path class="st9" d="M198.37,684.53c19.65-10.99,47.94,8.42,47.94,8.42l34.93,30.63c14.13,12.4,35.46,11.7,48.75-1.59l0,0
				l-66.35-62.05c-11.72-10.96-30.02-10.65-41.37,0.69L198.37,684.53z"/>
		</g>
		<g id="XMLID_81_">
			<path class="st3" d="M314.59,664.59c-7.53,0-11.59,8.8-6.74,14.55c3.07,3.64,7.96,6.87,15.72,8.11
				c14.32,2.28,23.06,19.7,27.37,31.38c0.66,1.79,3.3,1.31,3.3-0.6v-44.62c0-4.88-3.95-8.83-8.82-8.83H314.59z"/>
		</g>
		<g>
			<path class="st3" d="M213.04,824.04h-10.62v-59.51h10.62v18.8c1.27-0.98,2.58-1.68,3.93-2.09c1.35-0.41,2.72-0.62,4.12-0.62
				c2.57,0,4.98,0.5,7.24,1.49c2.26,0.99,4.22,2.36,5.9,4.09c1.67,1.74,3,3.76,3.97,6.08c0.97,2.32,1.46,4.79,1.46,7.42v24.33h-10.7
				v-24.33h0.08c0-1.11-0.21-2.17-0.62-3.16c-0.42-0.99-0.99-1.86-1.71-2.6c-0.73-0.74-1.57-1.33-2.53-1.75
				c-0.96-0.42-1.98-0.64-3.07-0.64c-1.12,0-2.17,0.21-3.15,0.64c-0.99,0.42-1.84,1.01-2.57,1.75c-0.73,0.74-1.3,1.61-1.71,2.6
				s-0.62,2.05-0.62,3.16V824.04z"/>
			<path class="st3" d="M287.48,802.37c0,3.18-0.56,6.14-1.67,8.89c-1.12,2.74-2.63,5.12-4.55,7.12c-1.92,2-4.17,3.58-6.75,4.73
				c-2.58,1.15-5.35,1.73-8.31,1.73c-2.93,0-5.69-0.58-8.27-1.73c-2.58-1.15-4.84-2.73-6.77-4.73c-1.93-2-3.46-4.37-4.57-7.12
				c-1.12-2.74-1.67-5.71-1.67-8.89c0-3.23,0.56-6.23,1.67-8.98c1.12-2.76,2.64-5.13,4.57-7.14c1.93-2,4.19-3.57,6.77-4.71
				c2.58-1.14,5.34-1.71,8.27-1.71c2.96,0,5.73,0.54,8.31,1.61c2.58,1.07,4.83,2.6,6.75,4.57c1.92,1.97,3.44,4.35,4.55,7.12
				C286.93,795.9,287.48,798.98,287.48,802.37z M276.78,802.37c0-1.75-0.28-3.33-0.84-4.75c-0.56-1.42-1.32-2.64-2.28-3.66
				c-0.96-1.02-2.08-1.8-3.37-2.35c-1.28-0.54-2.65-0.82-4.11-0.82c-1.45,0-2.82,0.27-4.1,0.82c-1.28,0.54-2.4,1.33-3.35,2.35
				c-0.95,1.02-1.69,2.24-2.24,3.66c-0.54,1.42-0.82,3-0.82,4.75c0,1.64,0.27,3.17,0.82,4.57c0.54,1.41,1.29,2.62,2.24,3.66
				c0.95,1.03,2.06,1.85,3.35,2.45c1.28,0.6,2.65,0.89,4.1,0.89c1.45,0,2.82-0.28,4.11-0.83s2.41-1.34,3.37-2.35
				c0.96-1.01,1.72-2.23,2.28-3.66C276.5,805.67,276.78,804.09,276.78,802.37z"/>
			<path class="st3" d="M323.98,819.07c-0.86,0.8-1.77,1.54-2.74,2.25s-1.99,1.31-3.05,1.83c-1.06,0.52-2.16,0.93-3.29,1.23
				s-2.28,0.46-3.44,0.46c-2.57,0-4.98-0.46-7.24-1.39c-2.26-0.93-4.24-2.25-5.93-3.96c-1.7-1.71-3.04-3.79-4.01-6.24
				c-0.97-2.45-1.46-5.2-1.46-8.25v-23.54h10.58v23.54c0,1.43,0.21,2.71,0.64,3.84c0.43,1.13,1,2.07,1.73,2.84
				c0.73,0.77,1.58,1.35,2.55,1.75c0.97,0.4,2.02,0.6,3.13,0.6c1.09,0,2.12-0.26,3.09-0.78c0.97-0.52,1.82-1.2,2.55-2.05
				c0.73-0.85,1.3-1.81,1.71-2.88c0.41-1.07,0.62-2.18,0.62-3.32v-23.54h10.62v42.58h-2.57L323.98,819.07z"/>
			<path class="st3" d="M361.03,824.04h-24.28v-10.81h24.28c0.73,0,1.35-0.26,1.87-0.79c0.52-0.53,0.78-1.17,0.78-1.91
				c0-0.77-0.26-1.27-0.78-1.51c-0.52-0.24-1.14-0.36-1.87-0.36h-11.05c-1.84,0-3.57-0.36-5.18-1.07c-1.61-0.72-3.01-1.69-4.2-2.92
				c-1.19-1.23-2.13-2.67-2.82-4.31c-0.69-1.64-1.03-3.41-1.03-5.29c0-1.88,0.34-3.64,1.03-5.29c0.69-1.64,1.63-3.07,2.82-4.29
				c1.19-1.22,2.59-2.18,4.2-2.88c1.61-0.7,3.33-1.05,5.18-1.05h21.52v10.81h-21.52c-0.73,0-1.35,0.27-1.87,0.79
				c-0.52,0.53-0.78,1.17-0.78,1.91c0,0.77,0.26,1.43,0.78,1.97s1.14,0.81,1.87,0.81h11.05c1.82,0,3.53,0.31,5.14,0.93
				c1.61,0.62,3.01,1.49,4.2,2.6c1.19,1.11,2.14,2.45,2.84,4.02c0.7,1.56,1.05,3.27,1.05,5.13c0,1.88-0.35,3.64-1.05,5.27
				c-0.7,1.63-1.65,3.06-2.84,4.29c-1.19,1.23-2.59,2.2-4.2,2.9C364.56,823.69,362.84,824.04,361.03,824.04z"/>
			<path class="st3" d="M396.48,813.62c0.41,0.13,0.83,0.22,1.25,0.26c0.42,0.04,0.83,0.06,1.25,0.06c1.04,0,2.04-0.15,3-0.44
				c0.96-0.29,1.86-0.71,2.7-1.25c0.84-0.54,1.6-1.21,2.26-1.99c0.66-0.78,1.2-1.65,1.61-2.6l7.78,7.99
				c-0.99,1.43-2.12,2.72-3.41,3.86c-1.28,1.14-2.67,2.11-4.16,2.9s-3.06,1.4-4.71,1.81c-1.65,0.41-3.34,0.62-5.08,0.62
				c-2.93,0-5.69-0.56-8.27-1.67c-2.58-1.11-4.84-2.66-6.77-4.65c-1.93-1.99-3.46-4.35-4.57-7.1c-1.12-2.74-1.67-5.76-1.67-9.04
				c0-3.37,0.56-6.44,1.67-9.22c1.12-2.78,2.64-5.15,4.57-7.12c1.93-1.96,4.19-3.48,6.77-4.57c2.58-1.09,5.34-1.63,8.27-1.63
				c1.74,0,3.44,0.21,5.1,0.64s3.24,1.03,4.73,1.83c1.49,0.8,2.89,1.77,4.18,2.92c1.3,1.15,2.44,2.44,3.42,3.88L396.48,813.62z
				 M401.93,791.24c-0.49-0.18-0.98-0.3-1.46-0.36c-0.48-0.05-0.98-0.08-1.5-0.08c-1.45,0-2.82,0.27-4.11,0.82
				c-1.28,0.54-2.4,1.32-3.35,2.33c-0.95,1.01-1.69,2.22-2.24,3.64s-0.82,3.01-0.82,4.79c0,0.4,0.02,0.85,0.06,1.35
				c0.04,0.5,0.1,1.01,0.19,1.53c0.09,0.52,0.2,1.01,0.33,1.49c0.13,0.48,0.3,0.9,0.51,1.27L401.93,791.24z"/>
			<path class="st3" d="M434.26,769.89c0,1.01-0.19,1.95-0.56,2.82c-0.38,0.88-0.89,1.64-1.54,2.29c-0.65,0.65-1.41,1.17-2.28,1.55
				c-0.87,0.38-1.8,0.58-2.78,0.58c-0.99,0-1.91-0.19-2.78-0.58c-0.87-0.38-1.62-0.9-2.26-1.55s-1.14-1.41-1.52-2.29
				c-0.38-0.87-0.56-1.81-0.56-2.82c0-0.98,0.19-1.92,0.56-2.8s0.88-1.66,1.52-2.31s1.39-1.17,2.26-1.55
				c0.87-0.38,1.8-0.58,2.78-0.58c0.99,0,1.91,0.19,2.78,0.58c0.87,0.38,1.63,0.9,2.28,1.55c0.65,0.65,1.16,1.42,1.54,2.31
				C434.07,767.97,434.26,768.91,434.26,769.89z M432.43,824.04h-10.7v-42.58h10.7V824.04z"/>
			<path class="st3" d="M454.03,824.04h-10.62v-31.76h-5.18v-10.81h5.18v-2.03c0-2.62,0.49-5.09,1.46-7.39
				c0.97-2.31,2.31-4.31,4.01-6.02c1.7-1.71,3.68-3.06,5.93-4.06c2.26-0.99,4.67-1.49,7.24-1.49h7.98v10.81h-7.98
				c-1.14,0-2.2,0.21-3.17,0.62c-0.97,0.41-1.82,0.98-2.53,1.71c-0.71,0.73-1.28,1.59-1.69,2.58c-0.42,0.99-0.62,2.07-0.62,3.24
				v2.03h13.04v10.81h-13.04V824.04z"/>
			<path class="st3" d="M481.81,840.26v-10.93l5.91,0.08c1.04,0,2.04-0.17,3-0.52c0.96-0.34,1.85-0.82,2.67-1.43
				c0.82-0.61,1.54-1.33,2.16-2.17s1.13-1.74,1.52-2.72c-1.17,0.5-2.35,1.01-3.56,1.51c-1.21,0.5-2.42,0.75-3.64,0.75
				c-2.57,0-4.98-0.46-7.24-1.39c-2.26-0.93-4.24-2.25-5.93-3.96c-1.7-1.71-3.04-3.79-4.01-6.24c-0.97-2.45-1.46-5.2-1.46-8.25
				v-23.54h10.58v23.54c0,1.51,0.21,2.83,0.64,3.96c0.43,1.13,1,2.07,1.73,2.82c0.73,0.76,1.58,1.32,2.55,1.69
				c0.97,0.37,2.02,0.56,3.13,0.56c1.09,0,2.12-0.26,3.09-0.78c0.97-0.52,1.82-1.2,2.55-2.05c0.73-0.85,1.3-1.81,1.71-2.88
				c0.41-1.07,0.62-2.18,0.62-3.32v-23.54h10.7v37.21c-0.03,3-0.6,5.8-1.71,8.43c-1.12,2.62-2.64,4.92-4.57,6.88
				c-1.93,1.96-4.18,3.51-6.75,4.65c-2.57,1.14-5.32,1.71-8.25,1.71L481.81,840.26z"/>
		</g>
	</g>
</g>
<rect x="1039.53" y="673.91" class="st2" width="1" height="2.99"/>
<g>
	<g>
		<path id="XMLID_27_" class="st3" d="M248.57,960.96c-7.26-7.01-18.8-6.92-25.94,0.22l-52.62,52.62v50.19
			c0,4.02,3.26,7.28,7.28,7.28h8.69c4.02,0,7.28-3.26,7.28-7.28v-37.34l60.58-60.58L248.57,960.96z"/>
		<path id="XMLID_25_" class="st9" d="M207.99,975.82c12.21-6.83,29.8,5.23,29.8,5.23l21.71,19.04c8.78,7.71,22.04,7.27,30.3-0.99
			l0,0l-41.25-38.57c-7.29-6.81-18.66-6.62-25.72,0.43L207.99,975.82z"/>
		<path id="XMLID_22_" class="st3" d="M280.24,963.43c-4.68,0-7.21,5.47-4.19,9.04c1.91,2.26,4.95,4.27,9.77,5.04
			c8.9,1.42,14.33,12.25,17.02,19.51c0.41,1.11,2.05,0.81,2.05-0.37v-27.74c0-3.03-2.46-5.49-5.49-5.49H280.24z"/>
	</g>
	<g>
		<path class="st3" d="M230.03,1071.27h-12v-67.25h12v21.25c1.44-1.11,2.92-1.89,4.44-2.36c1.52-0.46,3.08-0.7,4.66-0.7
			c2.9,0,5.63,0.56,8.18,1.68c2.55,1.12,4.77,2.67,6.66,4.63c1.89,1.96,3.38,4.25,4.48,6.87c1.1,2.62,1.65,5.41,1.65,8.38v27.49
			h-12.09v-27.49h0.09c0-1.26-0.24-2.45-0.7-3.57s-1.11-2.1-1.93-2.94c-0.82-0.84-1.77-1.5-2.86-1.98
			c-1.08-0.48-2.24-0.72-3.47-0.72c-1.26,0-2.45,0.24-3.56,0.72c-1.11,0.48-2.08,1.14-2.9,1.98c-0.82,0.84-1.47,1.82-1.93,2.94
			s-0.7,2.31-0.7,3.57V1071.27z"/>
	</g>
</g>
<g>
	<g>
		<g>
			<path class="st10" d="M791.78,817.75h-9.86v-54.09h9.86v17.09c1.18-0.89,2.4-1.52,3.65-1.9c1.25-0.37,2.53-0.56,3.83-0.56
				c2.38,0,4.62,0.45,6.72,1.36s3.92,2.14,5.47,3.72s2.78,3.42,3.69,5.53s1.36,4.35,1.36,6.74v22.11h-9.94v-22.11h0.07
				c0-1.01-0.19-1.97-0.58-2.87c-0.39-0.9-0.92-1.69-1.59-2.37c-0.67-0.67-1.46-1.2-2.35-1.59c-0.89-0.38-1.84-0.58-2.85-0.58
				c-1.04,0-2.01,0.19-2.93,0.58c-0.92,0.39-1.71,0.92-2.38,1.59c-0.67,0.67-1.21,1.46-1.59,2.37c-0.39,0.9-0.58,1.86-0.58,2.87
				V817.75z"/>
			<path class="st10" d="M860.9,798.06c0,2.89-0.52,5.58-1.55,8.08c-1.04,2.49-2.45,4.65-4.23,6.47c-1.78,1.82-3.87,3.25-6.27,4.3
				s-4.97,1.57-7.71,1.57c-2.72,0-5.28-0.52-7.68-1.57s-4.49-2.48-6.29-4.3s-3.21-3.97-4.25-6.47c-1.04-2.49-1.55-5.19-1.55-8.08
				c0-2.94,0.52-5.66,1.55-8.17c1.04-2.5,2.45-4.67,4.25-6.49s3.89-3.25,6.29-4.28c2.4-1.04,4.96-1.55,7.68-1.55
				c2.75,0,5.32,0.49,7.71,1.46s4.49,2.36,6.27,4.16c1.78,1.79,3.19,3.95,4.23,6.47C860.38,792.18,860.9,794.98,860.9,798.06z
				 M850.96,798.06c0-1.59-0.26-3.03-0.78-4.32s-1.22-2.4-2.11-3.32c-0.89-0.93-1.93-1.64-3.13-2.13s-2.46-0.74-3.81-0.74
				c-1.35,0-2.62,0.25-3.81,0.74s-2.23,1.2-3.11,2.13s-1.57,2.04-2.08,3.32s-0.76,2.73-0.76,4.32c0,1.49,0.25,2.88,0.76,4.16
				c0.51,1.28,1.2,2.38,2.08,3.32s1.92,1.68,3.11,2.22s2.46,0.81,3.81,0.81c1.35,0,2.62-0.25,3.81-0.76s2.23-1.22,3.13-2.13
				c0.89-0.92,1.6-2.02,2.11-3.32S850.96,799.62,850.96,798.06z"/>
			<path class="st10" d="M894.79,813.23c-0.79,0.72-1.64,1.4-2.55,2.04s-1.85,1.19-2.84,1.66c-0.99,0.47-2.01,0.84-3.05,1.12
				c-1.05,0.28-2.11,0.42-3.2,0.42c-2.38,0-4.62-0.42-6.72-1.26s-3.93-2.04-5.51-3.59s-2.82-3.44-3.72-5.67s-1.35-4.73-1.35-7.5
				v-21.39h9.83v21.39c0,1.3,0.2,2.46,0.6,3.49s0.93,1.88,1.61,2.58c0.67,0.7,1.46,1.23,2.37,1.59s1.87,0.54,2.91,0.54
				c1.01,0,1.97-0.23,2.87-0.7s1.69-1.09,2.37-1.86c0.67-0.77,1.2-1.64,1.59-2.62c0.38-0.98,0.58-1.98,0.58-3.02v-21.39h9.86v38.7
				h-2.38L894.79,813.23z"/>
			<path class="st10" d="M929.19,817.75h-22.55v-9.83h22.55c0.67,0,1.25-0.24,1.73-0.72c0.48-0.48,0.72-1.06,0.72-1.73
				c0-0.7-0.24-1.16-0.72-1.37c-0.48-0.22-1.06-0.33-1.73-0.33h-10.26c-1.71,0-3.31-0.33-4.81-0.98c-1.49-0.65-2.79-1.54-3.9-2.66
				c-1.11-1.12-1.98-2.43-2.62-3.92c-0.64-1.49-0.96-3.09-0.96-4.81c0-1.71,0.32-3.31,0.96-4.81c0.64-1.49,1.51-2.79,2.62-3.9
				c1.11-1.11,2.41-1.98,3.9-2.62c1.49-0.64,3.09-0.96,4.81-0.96h19.98v9.83h-19.98c-0.67,0-1.25,0.24-1.73,0.72
				c-0.48,0.48-0.72,1.06-0.72,1.73c0,0.7,0.24,1.29,0.72,1.79c0.48,0.49,1.06,0.74,1.73,0.74h10.26c1.69,0,3.28,0.28,4.77,0.85
				c1.49,0.57,2.79,1.35,3.9,2.37c1.11,1.01,1.99,2.23,2.64,3.65c0.65,1.42,0.98,2.98,0.98,4.66c0,1.71-0.33,3.31-0.98,4.79
				s-1.53,2.78-2.64,3.9c-1.11,1.12-2.41,2-3.9,2.64C932.46,817.43,930.87,817.75,929.19,817.75z"/>
			<path class="st10" d="M973.85,808.17c1.6-0.62,3.1-1.59,4.48-2.92l6.14,6.66c-3.75,4.29-9.23,6.44-16.43,6.44
				c-4.49,0-8.46-0.88-11.91-2.63c-3.45-1.75-6.12-4.18-7.99-7.29c-1.88-3.11-2.81-6.63-2.81-10.58c0-3.9,0.92-7.41,2.77-10.55
				c1.85-3.13,4.39-5.57,7.62-7.33c3.23-1.75,6.87-2.63,10.92-2.63c3.8,0,7.25,0.8,10.36,2.4c3.11,1.6,5.59,3.92,7.44,6.96
				c1.85,3.03,2.78,6.62,2.78,10.77l-29.45,5.7c0.84,1.97,2.16,3.45,3.96,4.44c1.8,0.99,4.01,1.48,6.62,1.48
				C970.41,809.09,972.25,808.79,973.85,808.17z M959.53,788.89c-1.83,1.88-2.79,4.46-2.89,7.77l19.39-3.77
				c-0.54-2.07-1.65-3.72-3.33-4.96c-1.68-1.23-3.7-1.85-6.07-1.85C963.72,786.08,961.36,787.02,959.53,788.89z"/>
			<path class="st10" d="M1005.04,768.54c0,0.92-0.17,1.77-0.52,2.57c-0.35,0.79-0.83,1.49-1.43,2.08s-1.31,1.06-2.11,1.41
				c-0.81,0.35-1.67,0.52-2.58,0.52s-1.78-0.17-2.58-0.52c-0.81-0.35-1.51-0.82-2.1-1.41c-0.59-0.59-1.06-1.28-1.41-2.08
				c-0.35-0.79-0.52-1.65-0.52-2.57c0-0.89,0.17-1.74,0.52-2.55c0.35-0.81,0.82-1.51,1.41-2.1c0.59-0.59,1.29-1.06,2.1-1.41
				c0.81-0.35,1.67-0.52,2.58-0.52s1.78,0.17,2.58,0.52c0.81,0.35,1.51,0.82,2.11,1.41s1.08,1.29,1.43,2.1
				C1004.87,766.8,1005.04,767.65,1005.04,768.54z M1003.34,817.75h-9.94v-38.7h9.94V817.75z"/>
			<path class="st10" d="M1023.4,817.75h-9.86v-28.87h-4.81v-9.83h4.81v-1.84c0-2.38,0.45-4.62,1.36-6.72s2.14-3.92,3.72-5.47
				c1.58-1.55,3.41-2.78,5.51-3.69s4.34-1.36,6.72-1.36h7.41v9.83h-7.41c-1.06,0-2.04,0.19-2.94,0.56s-1.69,0.89-2.35,1.55
				c-0.66,0.66-1.19,1.45-1.57,2.35s-0.58,1.88-0.58,2.94v1.84h12.1v9.83h-12.1V817.75z"/>
			<path class="st10" d="M1049.2,832.49v-9.94l5.49,0.07c0.96,0,1.89-0.16,2.78-0.47s1.72-0.75,2.48-1.3s1.43-1.21,2-1.97
				s1.05-1.58,1.41-2.48c-1.08,0.46-2.19,0.92-3.31,1.37c-1.12,0.46-2.25,0.69-3.38,0.69c-2.38,0-4.62-0.42-6.72-1.26
				s-3.93-2.04-5.51-3.59c-1.58-1.55-2.82-3.44-3.72-5.67s-1.36-4.73-1.36-7.5v-21.39h9.83v21.39c0,1.37,0.2,2.57,0.6,3.6
				s0.93,1.88,1.61,2.57s1.46,1.2,2.37,1.54c0.9,0.34,1.87,0.51,2.91,0.51c1.01,0,1.97-0.23,2.87-0.7s1.69-1.09,2.37-1.86
				c0.67-0.77,1.2-1.64,1.59-2.62s0.58-1.98,0.58-3.02v-21.39h9.94v33.82c-0.02,2.72-0.55,5.28-1.59,7.66s-2.45,4.47-4.25,6.25
				c-1.79,1.78-3.88,3.19-6.27,4.23s-4.94,1.55-7.66,1.55L1049.2,832.49z"/>
		</g>
		<rect x="1032.19" y="755.36" class="st10" width="1" height="2.99"/>
		<g id="XMLID_86_">
			<path class="st10" d="M854.51,662.65c-11.68-11.28-30.25-11.13-41.73,0.36l-84.65,84.65v80.73c0,6.47,5.24,11.71,11.71,11.71
				h13.98c6.47,0,11.71-5.24,11.71-11.71v-60.06l97.46-97.46L854.51,662.65z"/>
		</g>
		<g id="XMLID_85_">
			<path class="st10" d="M789.23,686.56c19.65-10.99,47.94,8.42,47.94,8.42l34.93,30.63c14.13,12.4,35.46,11.7,48.75-1.59l0,0
				l-66.35-62.05c-11.72-10.96-30.02-10.65-41.37,0.69L789.23,686.56z"/>
		</g>
		<g id="XMLID_84_">
			<path class="st10" d="M905.44,666.63c-7.53,0-11.59,8.8-6.74,14.55c3.07,3.64,7.96,6.87,15.72,8.11
				c14.32,2.28,23.06,19.7,27.37,31.38c0.66,1.79,3.3,1.31,3.3-0.6v-44.62c0-4.88-3.95-8.83-8.82-8.83H905.44z"/>
		</g>
	</g>
</g>
<g>
	<g>
		<path id="XMLID_44_" class="st5" d="M823.1,968.95c-7.26-7.01-18.8-6.92-25.94,0.22l-52.62,52.62v50.19
			c0,4.02,3.26,7.28,7.28,7.28h8.69c4.02,0,7.28-3.26,7.28-7.28v-37.34l60.58-60.58L823.1,968.95z"/>
		<path id="XMLID_36_" class="st6" d="M782.52,983.81c12.21-6.83,29.8,5.23,29.8,5.23l21.71,19.04c8.78,7.71,22.04,7.27,30.3-0.99
			l0,0l-41.25-38.57c-7.29-6.81-18.66-6.62-25.72,0.43L782.52,983.81z"/>
		<path id="XMLID_2_" class="st7" d="M854.76,971.42c-4.68,0-7.21,5.47-4.19,9.04c1.91,2.26,4.95,4.27,9.77,5.04
			c8.9,1.42,14.33,12.25,17.02,19.51c0.41,1.11,2.05,0.81,2.05-0.37v-27.74c0-3.03-2.46-5.49-5.49-5.49H854.76z"/>
	</g>
	<g>
		<g>
			<path class="st5" d="M804.55,1079.26h-12v-67.25h12v21.25c1.44-1.11,2.92-1.89,4.44-2.36c1.52-0.46,3.08-0.7,4.66-0.7
				c2.9,0,5.63,0.56,8.18,1.68c2.55,1.12,4.77,2.67,6.66,4.63c1.89,1.96,3.38,4.25,4.48,6.87c1.1,2.62,1.65,5.41,1.65,8.38v27.49
				h-12.09v-27.49h0.09c0-1.26-0.24-2.45-0.7-3.57s-1.11-2.1-1.93-2.94c-0.82-0.84-1.77-1.5-2.86-1.98
				c-1.08-0.48-2.24-0.72-3.47-0.72c-1.26,0-2.45,0.24-3.56,0.72c-1.11,0.48-2.08,1.14-2.9,1.98c-0.82,0.84-1.47,1.82-1.93,2.94
				s-0.7,2.31-0.7,3.57V1079.26z"/>
		</g>
	</g>
</g>
</svg>
