<?xml version="1.0" encoding="utf-8"?>
<!-- Generator: Adobe Illustrator 16.0.0, SVG Export Plug-In . SVG Version: 6.00 Build 0)  -->
<!DOCTYPE svg PUBLIC "-//W3C//DTD SVG 1.1//EN" "http://www.w3.org/Graphics/SVG/1.1/DTD/svg11.dtd">
<svg version="1.1" id="Capa_1" xmlns="http://www.w3.org/2000/svg" xmlns:xlink="http://www.w3.org/1999/xlink" x="0px" y="0px"
	 width="1620.333px" height="1080px" viewBox="0 0 1620.333 1080" enable-background="new 0 0 1620.333 1080" xml:space="preserve">
<rect x="552.465" y="694.475" fill="#53ADBC" width="1.5" height="4.5"/>
<g>
	<g>
		<g>
			<g id="XMLID_36_">
				<path fill="#00E7BA" d="M284.828,554.815c-17.591-16.995-45.558-16.761-62.852,0.537L94.474,682.857v121.608
					c0,9.745,7.899,17.645,17.644,17.645h21.062c9.745,0,17.644-7.899,17.644-17.645v-90.47L297.623,567.19L284.828,554.815z"/>
			</g>
			<g id="XMLID_35_">
				<path fill="#36C6AA" d="M186.489,590.839c29.598-16.55,72.212,12.686,72.212,12.686l52.616,46.143
					c21.284,18.672,53.406,17.621,73.428-2.401l0,0l-99.947-93.467c-17.654-16.511-45.219-16.048-62.314,1.04L186.489,590.839z"/>
			</g>
		</g>
	</g>
	<path id="XMLID_4_" fill="#00DDC8" d="M361.545,560.814c-11.339,0-17.462,13.251-10.148,21.915
		c4.627,5.486,11.988,10.348,23.685,12.215c21.576,3.438,34.734,29.673,41.23,47.274c0.993,2.697,4.964,1.968,4.964-0.9V574.11
		c0-7.344-5.953-13.296-13.292-13.296H361.545z"/>
	<text transform="matrix(0.9788 0 0 1 186.4907 800.9873)" fill="#00E1C4" font-family="'Righteous-Regular'" font-size="122.6432">houseify</text>
</g>
<g>
	<g>
		<g>
			<g id="XMLID_34_">
				<path fill="#FCFCFC" d="M757.896,141.901c-18.848-18.207-48.809-17.957-67.337,0.576L553.965,279.073v130.282
					c0,10.439,8.46,18.902,18.903,18.902h22.563c10.44,0,18.901-8.462,18.901-18.902v-96.921l157.27-157.275L757.896,141.901z"/>
			</g>
			<g id="XMLID_33_">
				<path fill="#FCFCFC" d="M652.545,180.495c31.708-17.731,77.361,13.589,77.361,13.589l56.367,49.433
					c22.802,20.005,57.214,18.877,78.665-2.572l0,0L757.863,140.813c-18.913-17.688-48.444-17.194-66.757,1.114L652.545,180.495z"/>
			</g>
		</g>
	</g>
	<path id="XMLID_1_" fill="#FCFCFC" d="M840.074,148.33c-12.141,0-18.706,14.195-10.872,23.477
		c4.965,5.877,12.851,11.085,25.383,13.084c23.114,3.684,37.209,31.789,44.162,50.645c1.071,2.892,5.321,2.109,5.321-0.964v-72
		c0-7.868-6.377-14.243-14.233-14.243H840.074z"/>
	<g>
		
			<text transform="matrix(0.9788 0 0 1 652.5439 405.6309)" fill="#FCFCFC" font-family="'Righteous-Regular'" font-size="131.3889">houseify</text>
	</g>
</g>
<g>
	<g>
		<g>
			<g id="XMLID_38_">
				<path fill="#7BE5F0" d="M1171.692,568.106c-17.47-16.877-45.241-16.646-62.415,0.535L982.658,695.26v120.767
					c0,9.675,7.842,17.52,17.521,17.52h20.917c9.676,0,17.52-7.845,17.52-17.52v-89.844l145.782-145.789L1171.692,568.106z"/>
			</g>
			<g id="XMLID_37_">
				<path fill="#AAE5E8" d="M1074.037,603.881c29.392-16.436,71.711,12.596,71.711,12.596l52.249,45.823
					c21.137,18.542,53.036,17.496,72.917-2.385l0,0l-99.252-92.816c-17.532-16.397-44.903-15.938-61.882,1.032L1074.037,603.881z"/>
			</g>
		</g>
	</g>
	<path id="XMLID_2_" fill="#7BE5F0" d="M1247.875,574.066c-11.26,0-17.34,13.158-10.077,21.763
		c4.596,5.446,11.906,10.273,23.522,12.123c21.424,3.418,34.491,29.469,40.941,46.95c0.986,2.68,4.932,1.955,4.932-0.896v-66.744
		c0-7.292-5.911-13.196-13.197-13.196H1247.875z"/>
	<g>
		
			<text transform="matrix(0.9788 0 0 1 1074.0391 812.5713)" fill="#7BE5F0" font-family="'Righteous-Regular'" font-size="121.7918">houseify</text>
	</g>
</g>
</svg>
